<svg xmlns="http://www.w3.org/2000/svg" width="643" height="283" viewBox="0 0 643 283" fill="none">
  <path d="M637.625 280.653C638.452 280.71 639.168 280.086 639.225 279.259L640.155 265.791C640.212 264.965 639.588 264.249 638.762 264.192C637.935 264.135 637.219 264.758 637.162 265.585L636.336 277.556L624.364 276.73C623.538 276.673 622.821 277.297 622.764 278.123C622.707 278.95 623.331 279.666 624.158 279.723L637.625 280.653ZM4.44331 10.0095C4.72453 10.7887 5.5842 11.1925 6.36344 10.9112C7.14267 10.63 7.54639 9.77034 7.26516 8.99111L4.44331 10.0095ZM13.6535 23.6794C13.2756 22.9422 12.3716 22.651 11.6344 23.0289C10.8972 23.4068 10.606 24.3108 10.9839 25.048L13.6535 23.6794ZM19.3557 39.1613C19.8205 39.847 20.7533 40.0261 21.439 39.5613C22.1247 39.0965 22.3039 38.1638 21.839 37.4781L19.3557 39.1613ZM31.6068 50.2594C31.0685 49.6297 30.1216 49.5557 29.492 50.094C28.8623 50.6323 28.7882 51.5792 29.3266 52.2089L31.6068 50.2594ZM40.6094 64.1313C41.2072 64.7048 42.1567 64.6851 42.7303 64.0873C43.3038 63.4895 43.2841 62.54 42.6864 61.9665L40.6094 64.1313ZM54.7625 72.5809C54.1181 72.0603 53.1737 72.1605 52.653 72.8049C52.1324 73.4492 52.2326 74.3937 52.877 74.9144L54.7625 72.5809ZM65.9472 84.6924C66.6277 85.1648 67.5623 84.9962 68.0348 84.3157C68.5073 83.6352 68.3386 82.7005 67.6581 82.2281L65.9472 84.6924ZM81.2132 91.0132C80.5047 90.5838 79.5823 90.81 79.1529 91.5185C78.7235 92.2269 78.9497 93.1493 79.6582 93.5787L81.2132 91.0132ZM93.8861 101.683C94.6163 102.074 95.5254 101.799 95.9168 101.069C96.3081 100.339 96.0335 99.4298 95.3033 99.0385L93.8861 101.683ZM109.764 106.364C109.017 106.006 108.121 106.322 107.763 107.069C107.405 107.816 107.72 108.711 108.467 109.07L109.764 106.364ZM123.253 115.804C124.013 116.134 124.896 115.784 125.225 115.024C125.555 114.264 125.205 113.381 124.445 113.051L123.253 115.804ZM139.429 119.243C138.658 118.939 137.787 119.317 137.483 120.087C137.179 120.858 137.557 121.729 138.328 122.033L139.429 119.243ZM153.645 127.818C154.424 128.1 155.284 127.697 155.565 126.918C155.847 126.139 155.444 125.279 154.665 124.997L153.645 127.818ZM169.918 130.301C169.133 130.039 168.283 130.462 168.02 131.248C167.757 132.034 168.181 132.884 168.967 133.146L169.918 130.301ZM184.468 138.144C185.259 138.39 186.1 137.948 186.346 137.157C186.592 136.366 186.15 135.526 185.359 135.28L184.468 138.144ZM200.961 139.971C200.165 139.74 199.333 140.197 199.102 140.993C198.87 141.788 199.327 142.62 200.123 142.852L200.961 139.971ZM215.732 147.257C216.531 147.475 217.356 147.005 217.575 146.206C217.793 145.407 217.323 144.582 216.524 144.363L215.732 147.257ZM232.224 148.546C231.422 148.338 230.604 148.819 230.396 149.621C230.188 150.423 230.669 151.242 231.471 151.45L232.224 148.546ZM247.266 155.445C248.07 155.643 248.883 155.152 249.082 154.348C249.28 153.544 248.789 152.731 247.985 152.532L247.266 155.445ZM263.75 156.34C262.944 156.15 262.136 156.649 261.945 157.455C261.754 158.261 262.253 159.069 263.059 159.26L263.75 156.34ZM278.926 162.942C279.733 163.126 280.537 162.62 280.721 161.812C280.905 161.005 280.4 160.201 279.592 160.017L278.926 162.942ZM295.436 163.57C294.627 163.391 293.826 163.902 293.648 164.711C293.469 165.52 293.98 166.321 294.789 166.499L295.436 163.57ZM310.683 169.966C311.493 170.14 312.291 169.625 312.465 168.816C312.64 168.006 312.125 167.208 311.315 167.033L310.683 169.966ZM327.207 170.425C326.397 170.254 325.601 170.772 325.429 171.582C325.258 172.393 325.776 173.189 326.586 173.36L327.207 170.425ZM342.504 176.707C343.315 176.876 344.109 176.356 344.279 175.545C344.449 174.735 343.929 173.94 343.118 173.77L342.504 176.707ZM359.03 177.087C358.219 176.919 357.425 177.439 357.256 178.25C357.087 179.061 357.608 179.856 358.419 180.024L359.03 177.087ZM374.33 183.336C375.141 183.505 375.935 182.985 376.104 182.174C376.273 181.363 375.753 180.568 374.942 180.399L374.33 183.336ZM390.874 183.734C390.064 183.563 389.268 184.082 389.098 184.893C388.927 185.703 389.446 186.499 390.257 186.669L390.874 183.734ZM406.121 190.032C406.931 190.205 407.728 189.689 407.901 188.879C408.075 188.069 407.558 187.272 406.748 187.099L406.121 190.032ZM422.677 190.544C421.868 190.367 421.068 190.879 420.891 191.688C420.714 192.498 421.226 193.297 422.035 193.475L422.677 190.544ZM437.901 197.003C438.709 197.186 439.512 196.679 439.695 195.871C439.878 195.063 439.371 194.26 438.563 194.077L437.901 197.003ZM454.358 197.718C453.552 197.528 452.744 198.028 452.555 198.834C452.365 199.641 452.865 200.448 453.671 200.638L454.358 197.718ZM469.526 204.456C470.331 204.654 471.143 204.163 471.342 203.359C471.54 202.555 471.049 201.742 470.245 201.543L469.526 204.456ZM486.019 205.545C485.217 205.336 484.398 205.816 484.189 206.617C483.979 207.419 484.459 208.238 485.261 208.448L486.019 205.545ZM500.853 212.652C501.651 212.874 502.478 212.408 502.701 211.61C502.923 210.812 502.457 209.984 501.659 209.762L500.853 212.652ZM517.387 214.312C516.594 214.073 515.757 214.523 515.519 215.316C515.28 216.11 515.73 216.946 516.523 217.185L517.387 214.312ZM532.017 222.043C532.805 222.301 533.652 221.871 533.91 221.084C534.167 220.297 533.738 219.45 532.951 219.192L532.017 222.043ZM548.316 224.47C547.537 224.189 546.677 224.593 546.396 225.372C546.115 226.151 546.519 227.011 547.298 227.292L548.316 224.47ZM562.395 233.045C563.163 233.355 564.037 232.983 564.347 232.215C564.656 231.446 564.284 230.573 563.516 230.263L562.395 233.045ZM578.582 236.727C577.829 236.383 576.939 236.714 576.594 237.467C576.249 238.22 576.58 239.11 577.333 239.455L578.582 236.727ZM591.867 246.603C592.599 246.991 593.507 246.712 593.895 245.98C594.283 245.248 594.004 244.34 593.272 243.952L591.867 246.603ZM607.452 252.122C606.751 251.681 605.825 251.893 605.384 252.594C604.943 253.295 605.154 254.221 605.855 254.662L607.452 252.122ZM619.077 263.842C619.733 264.348 620.675 264.226 621.181 263.57C621.687 262.914 621.565 261.972 620.909 261.466L619.077 263.842ZM633.291 272.241C632.703 271.658 631.753 271.663 631.17 272.251C630.587 272.84 630.592 273.79 631.18 274.373L633.291 272.241ZM1.88607 2.13809C2.65872 4.805 3.51182 7.42849 4.44331 10.0095L7.26516 8.99111C6.3555 6.47056 5.5223 3.9083 4.76758 1.30327L1.88607 2.13809ZM10.9839 25.048C13.4797 29.9163 16.2762 34.6179 19.3557 39.1613L21.839 37.4781C18.8257 33.0324 16.0919 28.4356 13.6535 23.6794L10.9839 25.048ZM29.3266 52.2089C32.8433 56.3224 36.6097 60.2939 40.6094 64.1313L42.6864 61.9665C38.7539 58.1936 35.0559 54.2937 31.6068 50.2594L29.3266 52.2089ZM52.877 74.9144C57.0458 78.2829 61.407 81.5401 65.9472 84.6924L67.6581 82.2281C63.1737 79.1146 58.8711 75.9009 54.7625 72.5809L52.877 74.9144ZM79.6582 93.5787C84.2562 96.3655 89.0025 99.065 93.8861 101.683L95.3033 99.0385C90.4632 96.4442 85.763 93.7708 81.2132 91.0132L79.6582 93.5787ZM108.467 109.07C113.287 111.38 118.218 113.624 123.253 115.804L124.445 113.051C119.444 110.885 114.547 108.657 109.764 106.364L108.467 109.07ZM138.328 122.033C143.349 124.014 148.457 125.941 153.645 127.818L154.665 124.997C149.503 123.129 144.422 121.212 139.429 119.243L138.328 122.033ZM168.967 133.146C174.07 134.853 179.24 136.518 184.468 138.144L185.359 135.28C180.15 133.659 175.001 132.001 169.918 130.301L168.967 133.146ZM200.123 142.852C205.279 144.352 210.484 145.819 215.732 147.257L216.524 144.363C211.291 142.93 206.101 141.467 200.961 139.971L200.123 142.852ZM231.471 151.45C236.703 152.806 241.97 154.137 247.266 155.445L247.985 152.532C242.7 151.227 237.444 149.899 232.224 148.546L231.471 151.45ZM263.059 159.26C268.327 160.506 273.618 161.732 278.926 162.942L279.592 160.017C274.292 158.809 269.009 157.584 263.75 156.34L263.059 159.26ZM294.789 166.499C300.077 167.668 305.377 168.823 310.683 169.966L311.315 167.033C306.014 165.891 300.719 164.737 295.436 163.57L294.789 166.499ZM326.586 173.36C331.894 174.483 337.201 175.598 342.504 176.707L343.118 173.77C337.817 172.662 332.512 171.548 327.207 170.425L326.586 173.36ZM358.419 180.024C363.736 181.131 369.041 182.233 374.33 183.336L374.942 180.399C369.652 179.296 364.346 178.193 359.03 177.087L358.419 180.024ZM390.257 186.669C395.569 187.787 400.859 188.907 406.121 190.032L406.748 187.099C401.483 185.973 396.19 184.852 390.874 183.734L390.257 186.669ZM422.035 193.475C427.362 194.641 432.653 195.817 437.901 197.003L438.563 194.077C433.307 192.889 428.01 191.712 422.677 190.544L422.035 193.475ZM453.671 200.638C459.011 201.894 464.298 203.165 469.526 204.456L470.245 201.543C465.005 200.25 459.707 198.976 454.358 197.718L453.671 200.638ZM485.261 208.448C490.531 209.824 495.731 211.224 500.853 212.652L501.659 209.762C496.52 208.33 491.304 206.925 486.019 205.545L485.261 208.448ZM516.523 217.185C521.788 218.767 526.956 220.385 532.017 222.043L532.951 219.192C527.865 217.526 522.673 215.901 517.387 214.312L516.523 217.185ZM547.298 227.292C552.467 229.158 557.503 231.074 562.395 233.045L563.516 230.263C558.587 228.276 553.517 226.347 548.316 224.47L547.298 227.292ZM577.333 239.455C582.373 241.762 587.222 244.142 591.867 246.603L593.272 243.952C588.571 241.461 583.669 239.056 578.582 236.727L577.333 239.455ZM605.855 254.662C610.545 257.61 614.958 260.667 619.077 263.842L620.909 261.466C616.707 258.227 612.214 255.116 607.452 252.122L605.855 254.662ZM631.18 274.373C633.082 276.257 634.889 278.179 636.598 280.141L638.86 278.171C637.101 276.151 635.243 274.175 633.291 272.241L631.18 274.373ZM637.522 282.149C639.175 282.263 640.608 281.016 640.722 279.363L642.581 252.427C642.695 250.774 641.448 249.341 639.795 249.227C638.142 249.113 636.709 250.361 636.595 252.014L634.943 275.957L610.999 274.304C609.347 274.19 607.914 275.437 607.8 277.09C607.686 278.743 608.933 280.175 610.586 280.29L637.522 282.149ZM3.03238 10.5187C3.59483 12.0772 5.31417 12.8846 6.87264 12.3222C8.43111 11.7597 9.23854 10.0404 8.67609 8.48191L3.03238 10.5187ZM14.9883 22.9951C14.2325 21.5207 12.4245 20.9382 10.9501 21.6941C9.4757 22.45 8.89323 24.2579 9.6491 25.7323L14.9883 22.9951ZM18.1141 40.0029C19.0437 41.3744 20.9091 41.7326 22.2806 40.803C23.6521 39.8733 24.0103 38.0079 23.0807 36.6364L18.1141 40.0029ZM32.747 49.2847C31.6703 48.0253 29.7766 47.8772 28.5172 48.9539C27.2579 50.0305 27.1098 51.9243 28.1864 53.1836L32.747 49.2847ZM39.5709 65.2137C40.7665 66.3607 42.6656 66.3214 43.8127 65.1258C44.9597 63.9302 44.9204 62.0311 43.7248 60.8841L39.5709 65.2137ZM55.7052 71.4142C54.4165 70.3729 52.5277 70.5734 51.4863 71.8621C50.445 73.1508 50.6455 75.0397 51.9342 76.0811L55.7052 71.4142ZM65.0917 85.9245C66.4527 86.8694 68.322 86.5321 69.267 85.1711C70.2119 83.8102 69.8746 81.9409 68.5136 80.9959L65.0917 85.9245ZM81.9906 89.7304C80.5737 88.8716 78.7289 89.3241 77.8701 90.741C77.0113 92.1579 77.4638 94.0027 78.8807 94.8615L81.9906 89.7304ZM93.1775 103.005C94.6378 103.787 96.4561 103.238 97.2389 101.778C98.0216 100.317 97.4723 98.4991 96.012 97.7164L93.1775 103.005ZM110.412 105.012C108.918 104.296 107.126 104.926 106.41 106.42C105.694 107.914 106.324 109.706 107.818 110.422L110.412 105.012ZM122.657 117.181C124.177 117.839 125.943 117.141 126.602 115.62C127.26 114.1 126.562 112.334 125.041 111.675L122.657 117.181ZM139.979 117.847C138.438 117.239 136.696 117.996 136.088 119.537C135.48 121.078 136.236 122.821 137.777 123.429L139.979 117.847ZM153.134 129.228C154.692 129.792 156.412 128.986 156.976 127.428C157.54 125.87 156.734 124.15 155.176 123.586L153.134 129.228ZM170.394 128.879C168.823 128.353 167.123 129.201 166.597 130.772C166.072 132.344 166.92 134.043 168.491 134.569L170.394 128.879ZM184.022 139.577C185.604 140.069 187.286 139.185 187.778 137.603C188.27 136.021 187.386 134.339 185.804 133.847L184.022 139.577ZM201.38 138.531C199.789 138.068 198.124 138.983 197.661 140.574C197.198 142.164 198.113 143.829 199.704 144.292L201.38 138.531ZM215.335 148.703C216.933 149.141 218.584 148.2 219.021 146.602C219.459 145.004 218.518 143.354 216.92 142.916L215.335 148.703ZM232.601 147.094C230.997 146.678 229.36 147.641 228.944 149.245C228.528 150.849 229.491 152.486 231.095 152.902L232.601 147.094ZM246.906 156.901C248.515 157.298 250.141 156.316 250.538 154.708C250.935 153.099 249.953 151.473 248.345 151.076L246.906 156.901ZM264.095 154.881C262.483 154.499 260.866 155.497 260.485 157.109C260.104 158.722 261.102 160.338 262.714 160.719L264.095 154.881ZM278.592 164.404C280.208 164.772 281.816 163.761 282.184 162.146C282.552 160.53 281.541 158.922 279.925 158.554L278.592 164.404ZM295.76 162.105C294.142 161.748 292.54 162.77 292.183 164.388C291.826 166.005 292.847 167.607 294.465 167.964L295.76 162.105ZM310.367 171.432C311.986 171.781 313.582 170.751 313.932 169.132C314.281 167.512 313.251 165.916 311.631 165.567L310.367 171.432ZM327.518 168.958C325.897 168.615 324.305 169.651 323.962 171.272C323.619 172.893 324.655 174.485 326.276 174.828L327.518 168.958ZM342.197 178.175C343.819 178.514 345.408 177.474 345.747 175.852C346.086 174.231 345.047 172.641 343.425 172.302L342.197 178.175ZM359.336 175.619C357.714 175.281 356.125 176.323 355.788 177.945C355.45 179.567 356.492 181.155 358.114 181.493L359.336 175.619ZM374.023 184.804C375.645 185.143 377.234 184.102 377.573 182.48C377.911 180.858 376.87 179.269 375.248 178.931L374.023 184.804ZM391.183 182.266C389.562 181.925 387.971 182.963 387.63 184.584C387.289 186.205 388.327 187.796 389.948 188.137L391.183 182.266ZM405.807 191.499C407.427 191.846 409.022 190.813 409.368 189.193C409.715 187.573 408.682 185.978 407.062 185.632L405.807 191.499ZM422.998 189.079C421.38 188.724 419.78 189.749 419.426 191.367C419.071 192.986 420.096 194.585 421.714 194.94L422.998 189.079ZM437.57 198.466C439.186 198.832 440.793 197.818 441.158 196.202C441.524 194.586 440.51 192.98 438.894 192.614L437.57 198.466ZM454.702 196.258C453.089 195.878 451.474 196.878 451.095 198.491C450.715 200.104 451.715 201.719 453.328 202.098L454.702 196.258ZM469.167 205.912C470.775 206.309 472.401 205.327 472.798 203.718C473.195 202.11 472.213 200.484 470.605 200.087L469.167 205.912ZM486.398 204.094C484.795 203.675 483.156 204.635 482.737 206.238C482.319 207.842 483.279 209.48 484.882 209.899L486.398 204.094ZM500.45 214.097C502.046 214.542 503.701 213.608 504.146 212.012C504.591 210.416 503.657 208.762 502.061 208.317L500.45 214.097ZM517.819 212.875C516.232 212.398 514.559 213.298 514.082 214.884C513.605 216.471 514.505 218.144 516.092 218.621L517.819 212.875ZM531.55 223.468C533.125 223.984 534.819 223.125 535.335 221.551C535.851 219.976 534.992 218.282 533.418 217.766L531.55 223.468ZM548.825 223.06C547.267 222.497 545.548 223.305 544.985 224.863C544.423 226.421 545.23 228.141 546.789 228.703L548.825 223.06ZM561.834 234.437C563.371 235.056 565.118 234.312 565.738 232.776C566.357 231.239 565.614 229.491 564.077 228.872L561.834 234.437ZM579.206 235.364C577.7 234.674 575.919 235.336 575.23 236.843C574.54 238.349 575.203 240.13 576.709 240.819L579.206 235.364ZM591.165 247.929C592.629 248.704 594.445 248.146 595.22 246.682C595.996 245.218 595.438 243.403 593.974 242.627L591.165 247.929ZM608.25 250.852C606.848 249.971 604.996 250.393 604.114 251.796C603.232 253.198 603.654 255.05 605.057 255.932L608.25 250.852ZM618.161 265.03C619.473 266.042 621.357 265.798 622.369 264.486C623.38 263.174 623.137 261.29 621.825 260.278L618.161 265.03ZM634.347 271.176C633.17 270.01 631.27 270.019 630.104 271.196C628.938 272.373 628.947 274.272 630.124 275.438L634.347 271.176ZM0.445317 2.55551C1.22693 5.25335 2.08999 7.90745 3.03238 10.5187L8.67609 8.48191C7.77734 5.9916 6.95408 3.45995 6.20833 0.885864L0.445317 2.55551ZM9.6491 25.7323C12.1736 30.6566 15.0015 35.4107 18.1141 40.0029L23.0807 36.6364C20.1005 32.2396 17.398 27.6953 14.9883 22.9951L9.6491 25.7323ZM28.1864 53.1836C31.7371 57.3367 35.5376 61.344 39.5709 65.2137L43.7248 60.8841C39.826 57.1435 36.1621 53.2793 32.747 49.2847L28.1864 53.1836ZM51.9342 76.0811C56.1331 79.4739 60.5236 82.7528 65.0917 85.9245L68.5136 80.9959C64.0571 77.9018 59.7838 74.7099 55.7052 71.4142L51.9342 76.0811ZM78.8807 94.8615C83.5027 97.6629 88.2721 100.375 93.1775 103.005L96.012 97.7164C91.1936 95.1338 86.5164 92.4735 81.9906 89.7304L78.8807 94.8615ZM107.818 110.422C112.657 112.742 117.606 114.993 122.657 117.181L125.041 111.675C120.056 109.516 115.177 107.296 110.412 105.012L107.818 110.422ZM137.777 123.429C142.813 125.415 147.934 127.347 153.134 129.228L155.176 123.586C150.026 121.723 144.958 119.811 139.979 117.847L137.777 123.429ZM168.491 134.569C173.605 136.279 178.785 137.948 184.022 139.577L185.804 133.847C180.605 132.23 175.466 130.575 170.394 128.879L168.491 134.569ZM199.704 144.292C204.868 145.795 210.081 147.264 215.335 148.703L216.92 142.916C211.694 141.485 206.512 140.024 201.38 138.531L199.704 144.292ZM231.095 152.902C236.333 154.26 241.605 155.592 246.906 156.901L248.345 151.076C243.064 149.772 237.815 148.446 232.601 147.094L231.095 152.902ZM262.714 160.719C267.986 161.966 273.281 163.194 278.592 164.404L279.925 158.554C274.629 157.347 269.35 156.123 264.095 154.881L262.714 160.719ZM294.465 167.964C299.757 169.133 305.059 170.288 310.367 171.432L311.631 165.567C306.332 164.425 301.04 163.272 295.76 162.105L294.465 167.964ZM326.276 174.828C331.585 175.951 336.894 177.066 342.197 178.175L343.425 172.302C338.125 171.194 332.821 170.08 327.518 168.958L326.276 174.828ZM358.114 181.493C363.43 182.599 368.735 183.702 374.023 184.804L375.248 178.931C369.958 177.828 364.651 176.725 359.336 175.619L358.114 181.493ZM389.948 188.137C395.259 189.255 400.548 190.374 405.807 191.499L407.062 185.632C401.794 184.505 396.5 183.384 391.183 182.266L389.948 188.137ZM421.714 194.94C427.038 196.106 432.326 197.28 437.57 198.466L438.894 192.614C433.634 191.425 428.333 190.247 422.998 189.079L421.714 194.94ZM453.328 202.098C458.662 203.353 463.944 204.623 469.167 205.912L470.605 200.087C465.359 198.792 460.055 197.517 454.702 196.258L453.328 202.098ZM484.882 209.899C490.145 211.274 495.337 212.672 500.45 214.097L502.061 208.317C496.914 206.882 491.69 205.476 486.398 204.094L484.882 209.899ZM516.092 218.621C521.346 220.2 526.502 221.815 531.55 223.468L533.418 217.766C528.319 216.096 523.116 214.467 517.819 212.875L516.092 218.621ZM546.789 228.703C551.942 230.563 556.96 232.472 561.834 234.437L564.077 228.872C559.129 226.878 554.042 224.942 548.825 223.06L546.789 228.703ZM576.709 240.819C581.724 243.115 586.548 245.482 591.165 247.929L593.974 242.627C589.245 240.121 584.317 237.703 579.206 235.364L576.709 240.819ZM605.057 255.932C609.71 258.857 614.084 261.887 618.161 265.03L621.825 260.278C617.581 257.007 613.049 253.869 608.25 250.852L605.057 255.932ZM630.124 275.438C632.001 277.298 633.783 279.193 635.466 281.126L639.991 277.186C638.207 275.137 636.324 273.134 634.347 271.176L630.124 275.438Z" fill="#E10000"/>
</svg>