<svg xmlns="http://www.w3.org/2000/svg" width="717" height="279" fill="none" viewBox="0 0 717 279">
  <path fill="#D51D1D" d="M12.472 276.128a1.5 1.5 0 0 0 1.97.789l12.41-5.314a1.5 1.5 0 1 0-1.181-2.757l-11.032 4.723-4.723-11.032a1.5 1.5 0 0 0-2.758 1.181l5.314 12.41Zm6.142-7.127a1.5 1.5 0 1 0-2.624-1.455l2.624 1.455Zm6.918-14.652a1.501 1.501 0 0 0 2.215 2.024l-2.215-2.024Zm13.892-8.447a1.5 1.5 0 0 0-1.792-2.406l1.792 2.406Zm11.888-11.088a1.5 1.5 0 1 0 1.433 2.635l-1.433-2.635Zm15.756-4.166a1.5 1.5 0 0 0-1.151-2.77l1.151 2.77Zm14.027-8.372a1.5 1.5 0 0 0 .935 2.851l-.935-2.851Zm16.342-1.684a1.5 1.5 0 0 0-.767-2.901l.767 2.901Zm14.808-6.636a1.5 1.5 0 1 0 .637 2.931l-.637-2.931Zm16.256-.173a1.5 1.5 0 0 0-.536-2.952l.536 2.952Zm15.409-5.612a1.5 1.5 0 0 0 .454 2.965l-.454-2.965Zm16.277.722a1.5 1.5 0 0 0-.39-2.974l.39 2.974Zm15.509-4.915a1.501 1.501 0 0 0 .339 2.981l-.339-2.981Zm16.386 1.273a1.501 1.501 0 0 0-.298-2.985l.298 2.985Zm15.574-4.481a1.5 1.5 0 1 0 .267 2.988l-.267-2.988Zm16.278 1.63a1.501 1.501 0 0 0-.243-2.991l.243 2.991Zm15.742-4.235a1.5 1.5 0 0 0 .224 2.992l-.224-2.992Zm16.206 1.826a1.5 1.5 0 1 0-.213-2.992l.213 2.992Zm15.82-4.113a1.5 1.5 0 0 0 .207 2.993l-.207-2.993Zm16.173 1.899a1.5 1.5 0 0 0-.204-2.993l.204 2.993Zm15.837-4.097a1.5 1.5 0 1 0 .208 2.993l-.208-2.993Zm16.172 1.868a1.5 1.5 0 1 0-.215-2.992l.215 2.992Zm15.8-4.172a1.5 1.5 0 0 0 .226 2.991l-.226-2.991Zm16.204 1.741a1.5 1.5 0 0 0-.242-2.99l.242 2.99Zm15.736-4.337a1.5 1.5 0 1 0 .262 2.988l-.262-2.988Zm16.243 1.522a1.5 1.5 0 0 0-.287-2.987l.287 2.987Zm15.655-4.593a1.5 1.5 0 1 0 .315 2.983l-.315-2.983Zm16.274 1.206a1.5 1.5 0 1 0-.349-2.979l.349 2.979Zm15.548-4.945a1.5 1.5 0 0 0 .388 2.975l-.388-2.975Zm16.291.783a1.5 1.5 0 1 0-.432-2.968l.432 2.968Zm15.408-5.407a1.5 1.5 0 1 0 .482 2.961l-.482-2.961Zm16.283.238a1.5 1.5 0 0 0-.538-2.952l.538 2.952Zm15.215-5.997a1.5 1.5 0 1 0 .602 2.939l-.602-2.939Zm16.232-.455a1.5 1.5 0 0 0-.673-2.924l.673 2.924Zm14.943-6.739a1.5 1.5 0 1 0 .753 2.904l-.753-2.904Zm16.209-1.353a1.5 1.5 0 1 0-.842-2.879l.842 2.879Zm14.45-7.635a1.5 1.5 0 1 0 .941 2.848l-.941-2.848Zm16.126-2.5a1.5 1.5 0 1 0-1.053-2.809l1.053 2.809Zm13.714-8.714a1.5 1.5 0 0 0 1.176 2.76l-1.176-2.76Zm15.897-3.948a1.5 1.5 0 1 0-1.314-2.697l1.314 2.697Zm12.787-10.053a1.501 1.501 0 0 0 1.463 2.619l-1.463-2.619Zm15.288-5.677a1.5 1.5 0 1 0-1.626-2.521l1.626 2.521Zm11.467-11.618a1.5 1.5 0 0 0 1.799 2.401l-1.799-2.401Zm14.311-7.738a1.5 1.5 0 1 0-1.978-2.256l1.978 2.256Zm9.535-13.232a1.5 1.5 0 0 0 2.16 2.082l-2.16-2.082Zm12.835-10.018a1.5 1.5 0 0 0-2.337-1.882l2.337 1.882Zm7.05-14.692a1.5 1.5 0 0 0 2.499 1.66l-2.499-1.66Zm10.807-12.206a1.5 1.5 0 1 0-2.642-1.42l2.642 1.42Zm4.206-15.67a1.5 1.5 0 1 0 2.759 1.177l-2.759-1.177Zm8.462-14.03a1.5 1.5 0 1 0-2.852-.93l2.852.93Zm1.432-16.142a1.5 1.5 0 1 0 2.918.698l-2.918-.698ZM15.243 276.096a62.619 62.619 0 0 1 3.371-7.095l-2.624-1.455a65.627 65.627 0 0 0-3.532 7.434l2.785 1.116Zm12.504-19.723c3.424-3.748 7.326-7.231 11.677-10.471l-1.792-2.406c-4.488 3.342-8.534 6.951-12.1 10.853l2.215 2.024Zm24.998-18.924c4.468-2.429 9.25-4.692 14.323-6.801l-1.151-2.77c-5.159 2.144-10.035 4.451-14.605 6.936l1.433 2.635Zm29.285-12.322a274.89 274.89 0 0 1 15.407-4.535l-.767-2.901a279.38 279.38 0 0 0-15.575 4.585l.935 2.851Zm30.852-8.24a461.703 461.703 0 0 1 15.619-3.104l-.536-2.952a460.744 460.744 0 0 0-15.72 3.125l.637 2.931Zm31.482-5.751a738.969 738.969 0 0 1 15.823-2.243l-.39-2.974a735.903 735.903 0 0 0-15.887 2.252l.454 2.965Zm31.671-4.177c5.273-.6 10.624-1.167 16.047-1.708l-.298-2.985c-5.435.542-10.8 1.111-16.088 1.712l.339 2.981Zm31.888-3.201c5.281-.471 10.62-.922 16.011-1.358l-.243-2.991c-5.397.437-10.745.889-16.035 1.361l.267 2.988Zm31.977-2.601c5.287-.397 10.616-.784 15.982-1.166l-.213-2.992c-5.369.381-10.702.769-15.993 1.166l.224 2.992Zm32.009-2.286c5.294-.365 10.618-.729 15.966-1.094l-.204-2.993c-5.348.365-10.673.729-15.969 1.094l.207 2.993Zm32.011-2.198c5.304-.368 10.627-.742 15.964-1.125l-.215-2.992c-5.334.383-10.654.756-15.957 1.124l.208 2.993Zm31.99-2.306c5.319-.403 10.647-.818 15.978-1.25l-.242-2.99c-5.326.431-10.648.846-15.962 1.249l.226 2.991Zm31.976-2.599c5.33-.468 10.658-.955 15.981-1.466l-.287-2.987c-5.314.511-10.634.998-15.956 1.465l.262 2.988Zm31.951-3.076c5.332-.564 10.653-1.155 15.959-1.777l-.349-2.979c-5.294.62-10.604 1.21-15.925 1.773l.315 2.983Zm31.895-3.747c5.324-.694 10.626-1.424 15.903-2.192l-.432-2.968c-5.261.765-10.549 1.493-15.859 2.185l.388 2.975Zm31.793-4.638c5.3-.863 10.569-1.769 15.801-2.723l-.538-2.952a836.38 836.38 0 0 1-15.745 2.714l.482 2.961Zm31.618-5.781a664.032 664.032 0 0 0 15.63-3.394l-.673-2.924a659.76 659.76 0 0 1-15.559 3.379l.602 2.939Zm31.326-7.229a519.208 519.208 0 0 0 15.456-4.257l-.842-2.879a516.789 516.789 0 0 1-15.367 4.232l.753 2.904Zm30.847-9.044a409.489 409.489 0 0 0 15.185-5.348l-1.053-2.809a405.823 405.823 0 0 1-15.073 5.309l.941 2.848Zm30.075-11.302a322.372 322.372 0 0 0 14.721-6.708l-1.314-2.697a318.688 318.688 0 0 1-14.583 6.645l1.176 2.76Zm28.971-14.142a254.723 254.723 0 0 0 13.825-8.296l-1.626-2.521a251.666 251.666 0 0 1-13.662 8.198l1.463 2.619Zm27.091-17.513a208.853 208.853 0 0 0 12.512-10.139l-1.978-2.256c-3.956 3.471-8.07 6.8-12.333 9.994l1.799 2.401Zm24.207-21.289a182.052 182.052 0 0 0 10.675-12.1l-2.337-1.882a178.754 178.754 0 0 1-10.498 11.9l2.16 2.082Zm20.224-25.132a174.097 174.097 0 0 0 8.308-13.866l-2.642-1.42a171.158 171.158 0 0 1-8.165 13.626l2.499 1.66Zm15.273-28.36a185.46 185.46 0 0 0 5.703-15.206l-2.852-.93a182.507 182.507 0 0 1-5.61 14.96l2.759 1.177Zm10.053-30.65a209.41 209.41 0 0 0 1.761-8.074l-2.942-.582a208.883 208.883 0 0 1-1.737 7.958l2.918.698ZM11.093 276.719a3 3 0 0 0 3.938 1.577l24.821-10.627a3 3 0 0 0-2.361-5.516l-22.063 9.446-9.446-22.062a3 3 0 1 0-5.516 2.361l10.627 24.821Zm8.833-6.991a3 3 0 1 0-5.248-2.909l5.248 2.909Zm4.499-16.39a3 3 0 1 0 4.429 4.047l-4.43-4.047Zm15.895-6.233a3 3 0 0 0-3.584-4.812l3.584 4.812Zm10.275-13.609a3 3 0 0 0 2.867 5.271l-2.867-5.271Zm17.049-1.463a3 3 0 0 0-2.303-5.54l2.303 5.54Zm12.984-11.182a3 3 0 1 0 1.87 5.702l-1.87-5.702Zm17.192 1.191a3 3 0 0 0-1.533-5.801l1.533 5.801Zm14.106-9.552a3 3 0 0 0 1.275 5.863l-1.275-5.863Zm16.843 2.768a3 3 0 1 0-1.072-5.903l1.072 5.903Zm14.914-8.57a3 3 0 1 0 .909 5.931l-.909-5.931Zm16.699 3.692a2.999 2.999 0 1 0-.78-5.949l.78 5.949Zm15.145-7.892a3 3 0 0 0 .677 5.961l-.677-5.961Zm16.704 4.255a3 3 0 1 0-.595-5.97l.595 5.97Zm15.292-7.467a3 3 0 1 0 .533 5.976l-.533-5.976Zm16.532 4.619a3.001 3.001 0 0 0-.485-5.981l.485 5.981Zm15.508-7.226a3 3 0 1 0 .45 5.983l-.45-5.983Zm16.425 4.818a2.999 2.999 0 1 0-.425-5.985l.425 5.985Zm15.611-7.105a3 3 0 1 0 .413 5.985l-.413-5.985Zm16.379 4.891a3 3 0 0 0-.41-5.986l.41 5.986Zm15.63-7.089a3 3 0 1 0 .416 5.986l-.416-5.986Zm16.384 4.86a3 3 0 0 0-.43-5.985l.43 5.985Zm15.578-7.164a3 3 0 0 0 .454 5.983l-.454-5.983Zm16.439 4.732a3 3 0 1 0-.484-5.981l.484 5.981Zm15.484-7.326a3 3 0 0 0 .524 5.977l-.524-5.977Zm16.517 4.509a3 3 0 0 0-.573-5.973l.573 5.973Zm15.354-7.578a3.001 3.001 0 0 0 .631 5.967l-.631-5.967Zm16.606 4.188a3 3 0 1 0-.698-5.959l.698 5.959Zm15.18-7.922a3 3 0 1 0 .776 5.949l-.776-5.949Zm16.701 3.755a3 3 0 1 0-.864-5.938l.864 5.938Zm14.951-8.372a3 3 0 1 0 .964 5.922l-.964-5.922Zm16.793 3.193a3 3 0 1 0-1.077-5.902l1.077 5.902Zm14.645-8.942a3 3 0 0 0 1.204 5.878l-1.204-5.878Zm16.869 2.477a3 3 0 0 0-1.345-5.848l1.345 5.848Zm14.231-9.653a3 3 0 0 0 1.505 5.808l-1.505-5.808Zm17.006 1.539a3 3 0 0 0-1.684-5.759l1.684 5.759Zm13.558-10.499a3 3 0 1 0 1.883 5.696l-1.883-5.696Zm17.124.329a3.002 3.002 0 0 0-2.107-5.619l2.107 5.619Zm12.599-11.498a3 3 0 0 0 2.352 5.519l-2.352-5.519Zm17.142-1.221a3 3 0 0 0-2.627-5.394l2.627 5.394Zm11.398-12.71a3 3 0 0 0 2.927 5.238l-2.927-5.238ZM631 125.774a3.001 3.001 0 0 0-3.251-5.043l3.251 5.043Zm9.755-14.08a3 3 0 1 0 3.598 4.802l-3.598-4.802Zm16.199-5.41a3 3 0 1 0-3.957-4.51l3.957 4.51Zm7.466-15.4a3 3 0 1 0 4.32 4.164l-4.32-4.164Zm15.083-8.035a3 3 0 0 0-4.673-3.765l4.673 3.764Zm4.633-16.463a3 3 0 1 0 4.998 3.319l-4.998-3.32Zm13.377-10.666a3 3 0 1 0-5.284-2.843l5.284 2.843Zm1.505-16.969a3 3 0 1 0 5.519 2.353l-5.519-2.353Zm11.268-12.977a3 3 0 1 0-5.704-1.861l5.704 1.861ZM708.833 8.82a3 3 0 0 0 5.836 1.394l-5.836-1.394ZM16.636 276.653a61.198 61.198 0 0 1 3.29-6.925l-5.248-2.909a67.13 67.13 0 0 0-3.612 7.604l5.57 2.23Zm12.218-19.268c3.354-3.671 7.183-7.091 11.466-10.28l-3.584-4.812c-4.556 3.393-8.675 7.065-12.311 11.045l4.429 4.047Zm24.608-18.618c4.417-2.402 9.15-4.642 14.182-6.734l-2.303-5.54c-5.2 2.162-10.125 4.49-14.746 7.003l2.867 5.271Zm29.035-12.214a273.895 273.895 0 0 1 15.323-4.511l-1.533-5.801a280.363 280.363 0 0 0-15.659 4.61l1.87 5.702Zm30.704-8.2a462.135 462.135 0 0 1 15.568-3.095l-1.072-5.903a465.207 465.207 0 0 0-15.771 3.135l1.275 5.863Zm31.391-5.734a740.406 740.406 0 0 1 15.79-2.239l-.78-5.949a746.985 746.985 0 0 0-15.919 2.257l.909 5.931Zm31.612-4.17c5.266-.598 10.61-1.165 16.027-1.706l-.595-5.97c-5.442.543-10.814 1.113-16.109 1.715l.677 5.961Zm31.852-3.197c5.276-.47 10.611-.921 15.999-1.357l-.485-5.981c-5.401.438-10.752.89-16.047 1.362l.533 5.976Zm31.957-2.6c5.284-.396 10.611-.783 15.975-1.165l-.425-5.985c-5.371.382-10.706.77-16 1.167l.45 5.983Zm31.999-2.285c5.294-.365 10.617-.728 15.966-1.094l-.41-5.986c-5.348.366-10.673.729-15.969 1.095l.413 5.985Zm32.012-2.197c5.305-.369 10.629-.743 15.968-1.126l-.43-5.985c-5.333.383-10.652.757-15.954 1.125l.416 5.986Zm32-2.307c5.321-.403 10.651-.819 15.985-1.251l-.484-5.981c-5.323.432-10.643.847-15.955 1.249l.454 5.983Zm31.993-2.6a2024.71 2024.71 0 0 0 15.993-1.468l-.573-5.973c-5.31.51-10.626.997-15.944 1.464l.524 5.977Zm31.978-3.079a1423.01 1423.01 0 0 0 15.975-1.779l-.698-5.959c-5.288.62-10.592 1.209-15.908 1.771l.631 5.967Zm31.931-3.752c5.33-.695 10.641-1.425 15.925-2.194l-.864-5.938c-5.253.765-10.534 1.491-15.837 2.183l.776 5.949Zm31.84-4.644a851.008 851.008 0 0 0 15.829-2.729l-1.077-5.902a848.319 848.319 0 0 1-15.716 2.709l.964 5.922Zm31.678-5.793a663.061 663.061 0 0 0 15.665-3.401l-1.345-5.848a651.824 651.824 0 0 1-15.524 3.371l1.204 5.878Zm31.401-7.246a523.922 523.922 0 0 0 15.501-4.269l-1.684-5.759a515.966 515.966 0 0 1-15.322 4.22l1.505 5.808Zm30.942-9.072a411.966 411.966 0 0 0 15.241-5.367l-2.107-5.619a405.176 405.176 0 0 1-15.017 5.29l1.883 5.696Zm30.192-11.346a323.138 323.138 0 0 0 14.79-6.74l-2.627-5.394a317.391 317.391 0 0 1-14.515 6.615l2.352 5.519Zm29.115-14.212A257.203 257.203 0 0 0 631 125.774l-3.251-5.043a250.258 250.258 0 0 1-13.582 8.15l2.927 5.238Zm27.259-17.623a210.196 210.196 0 0 0 12.601-10.212l-3.957-4.51a204.22 204.22 0 0 1-12.242 9.92l3.598 4.802Zm24.387-21.448a183.733 183.733 0 0 0 10.763-12.2l-4.673-3.764a177.359 177.359 0 0 1-10.41 11.8l4.32 4.164Zm20.394-25.343a175.73 175.73 0 0 0 8.379-13.985l-5.284-2.843a169.52 169.52 0 0 1-8.093 13.509l4.998 3.319Zm15.403-28.601a187.317 187.317 0 0 0 5.749-15.33l-5.704-1.861a181.031 181.031 0 0 1-5.564 14.838l5.519 2.353Zm10.132-30.89c.638-2.672 1.23-5.382 1.774-8.132L710.557.918a205.763 205.763 0 0 1-1.724 7.9l5.836 1.395Z"/>
</svg>
