<svg xmlns="http://www.w3.org/2000/svg" width="727" height="289" fill="none" viewBox="0 0 727 289">
  <path fill="#E10000" d="M710.304 287.329a1.5 1.5 0 0 0 2.025-.633l6.266-11.957a1.5 1.5 0 1 0-2.657-1.393l-5.57 10.629-10.629-5.57a1.5 1.5 0 0 0-1.393 2.657l11.958 6.267ZM4.744 9.717A1.5 1.5 0 1 0 7.51 8.558l-2.767 1.16Zm9.758 12.745a1.5 1.5 0 1 0-2.582 1.527l2.582-1.527Zm6.44 14.768a1.5 1.5 0 1 0 2.37-1.84l-2.37 1.84Zm12.616 9.922a1.5 1.5 0 1 0-2.152 2.09l2.152-2.09Zm9.452 12.94a1.5 1.5 0 0 0 1.946-2.282l-1.946 2.282Zm14.297 7.4a1.5 1.5 0 1 0-1.758 2.43l1.758-2.43Zm11.547 11.363a1.5 1.5 0 1 0 1.59-2.544l-1.59 2.544Zm15.062 5.342a1.5 1.5 0 0 0-1.444 2.63l1.444-2.63Zm12.65 9.927a1.5 1.5 0 1 0 1.317-2.696l-1.317 2.696Zm15.737 3.977a1.5 1.5 0 0 0-1.205 2.748l1.205-2.748Zm13.303 8.807a1.5 1.5 0 1 0 1.11-2.787l-1.11 2.787Zm15.89 2.833a1.5 1.5 0 1 0-1.025 2.819l1.025-2.819Zm13.947 8.035a1.5 1.5 0 1 0 .95-2.845l-.95 2.845Zm15.943 1.973a1.5 1.5 0 1 0-.886 2.866l.886-2.866Zm14.375 7.414a1.5 1.5 0 0 0 .829-2.883l-.829 2.883Zm15.963 1.323a1.5 1.5 0 0 0-.779 2.897l.779-2.897Zm14.633 6.91a1.5 1.5 0 1 0 .734-2.909l-.734 2.909Zm15.998.834a1.5 1.5 0 1 0-.695 2.918l.695-2.918Zm14.781 6.508a1.5 1.5 0 0 0 .661-2.927l-.661 2.927Zm16.047.465a1.5 1.5 0 1 0-.631 2.933l.631-2.933Zm14.89 6.198a1.5 1.5 0 1 0 .605-2.938l-.605 2.938Zm16.074.183a1.5 1.5 0 1 0-.583 2.943l.583-2.943Zm14.97 5.966a1.5 1.5 0 1 0 .563-2.947l-.563 2.947Zm16.087-.026a1.5 1.5 0 1 0-.547 2.95l.547-2.95Zm15.026 5.801a1.5 1.5 0 1 0 .534-2.952l-.534 2.952Zm16.093-.167a1.5 1.5 0 1 0-.524 2.954l.524-2.954Zm15.061 5.696a1.5 1.5 0 1 0 .516-2.955l-.516 2.955Zm16.095-.247a1.5 1.5 0 1 0-.511 2.956l.511-2.956Zm15.078 5.649a1.5 1.5 0 1 0 .51-2.956l-.51 2.956Zm16.094-.265a1.5 1.5 0 1 0-.511 2.956l.511-2.956Zm15.077 5.663a1.501 1.501 0 0 0 .516-2.956l-.516 2.956Zm16.086-.221a1.5 1.5 0 0 0-.523 2.954l.523-2.954Zm15.062 5.741a1.5 1.5 0 1 0 .534-2.952l-.534 2.952Zm16.063-.106a1.5 1.5 0 1 0-.548 2.949l.548-2.949Zm15.033 5.896a1.5 1.5 0 0 0 .567-2.946l-.567 2.946Zm16.012.088a1.5 1.5 0 1 0-.591 2.942l.591-2.942Zm14.985 6.145a1.5 1.5 0 0 0 .62-2.936l-.62 2.936Zm15.999.4a1.501 1.501 0 0 0-.654 2.928l.654-2.928Zm14.82 6.498a1.5 1.5 0 0 0 .696-2.918l-.696 2.918Zm16.068.887a1.5 1.5 0 1 0-.747 2.905l.747-2.905Zm14.419 6.971a1.501 1.501 0 0 0 .808-2.889l-.808 2.889Zm16.136 1.61a1.5 1.5 0 0 0-.884 2.867l.884-2.867Zm14.062 7.732a1.5 1.5 0 1 0 .977-2.836l-.977 2.836Zm15.785 2.584a1.5 1.5 0 0 0-1.09 2.795l1.09-2.795Zm13.539 8.931a1.5 1.5 0 1 0 1.236-2.734l-1.236 2.734Zm15.544 4.312a1.498 1.498 0 0 0-2.031.61 1.498 1.498 0 0 0 .61 2.031l1.421-2.641Zm12.019 10.655a1.5 1.5 0 0 0 1.661-2.498l-1.661 2.498Zm14.396 7.128a1.5 1.5 0 0 0-1.967 2.265l1.967-2.265Zm8.833 13.38a1.5 1.5 0 0 0 2.34-1.879l-2.34 1.879Zm10.911 11.733a1.5 1.5 0 0 0-2.716 1.273l2.716-1.273ZM1.906 2.2a112.607 112.607 0 0 0 2.838 7.517L7.51 8.558a109.926 109.926 0 0 1-2.763-7.317l-2.842.96ZM11.92 23.99a126.878 126.878 0 0 0 9.022 13.241l2.37-1.84a123.886 123.886 0 0 1-8.81-12.928L11.92 23.99Zm19.486 25.25A168.507 168.507 0 0 0 43.01 60.093l1.946-2.283a165.577 165.577 0 0 1-11.398-10.658l-2.152 2.09Zm24.143 20.682a237.078 237.078 0 0 0 13.305 8.932l1.59-2.544a234.119 234.119 0 0 1-13.137-8.82l-1.758 2.432Zm26.923 16.904a331.906 331.906 0 0 0 14.094 7.297l1.317-2.696a328.72 328.72 0 0 1-13.967-7.23l-1.444 2.629Zm28.626 14.022a456.496 456.496 0 0 0 14.508 6.059l1.11-2.787a453.193 453.193 0 0 1-14.413-6.02l-1.205 2.748Zm29.373 11.711a607.36 607.36 0 0 0 14.972 5.216l.95-2.845a610.92 610.92 0 0 1-14.897-5.19l-1.025 2.819Zm30.029 10.055a797.843 797.843 0 0 0 15.261 4.548l.829-2.883a794.798 794.798 0 0 1-15.204-4.531l-.886 2.866Zm30.445 8.768a1043.32 1043.32 0 0 0 15.412 4.013l.734-2.909a1043.215 1043.215 0 0 1-15.367-4.001l-.779 2.897Zm30.715 7.765a1334.821 1334.821 0 0 0 15.476 3.59l.661-2.927a1324.259 1324.259 0 0 1-15.442-3.581l-.695 2.918Zm30.892 6.988a1811.319 1811.319 0 0 0 15.521 3.265l.605-2.938a1835.873 1835.873 0 0 1-15.495-3.26l-.631 2.933Zm31.012 6.391c5.169 1.022 10.355 2.03 15.553 3.023l.563-2.947a2427.533 2427.533 0 0 1-15.533-3.019l-.583 2.943Zm31.093 5.947c5.184.962 10.376 1.911 15.573 2.851l.534-2.952a3452.167 3452.167 0 0 1-15.56-2.849l-.547 2.95Zm31.142 5.638c5.197.921 10.393 1.835 15.585 2.742l.516-2.955a6453.15 6453.15 0 0 1-15.577-2.741l-.524 2.954Zm31.169 5.451c5.207.902 10.405 1.799 15.589 2.693l.51-2.956c-5.184-.895-10.381-1.792-15.588-2.693l-.511 2.956Zm31.172 5.384c5.216.902 10.414 1.804 15.588 2.707l.516-2.956a10666.77 10666.77 0 0 0-15.593-2.707l-.511 2.956Zm31.151 5.44c5.226.925 10.423 1.854 15.585 2.787l.534-2.952a4453.11 4453.11 0 0 0-15.596-2.789l-.523 2.954Zm31.1 5.63c5.236.974 10.432 1.955 15.581 2.947l.567-2.946a2495.675 2495.675 0 0 0-15.6-2.95l-.548 2.949Zm31.002 5.977c5.251 1.053 10.445 2.12 15.576 3.203l.62-2.936a1665.694 1665.694 0 0 0-15.605-3.209l-.591 2.942Zm30.921 6.531a1092.137 1092.137 0 0 1 15.474 3.57l.696-2.918a1090.611 1090.611 0 0 0-15.516-3.58l-.654 2.928Zm30.795 7.362a740.064 740.064 0 0 1 15.166 4.066l.808-2.889a738.37 738.37 0 0 0-15.227-4.082l-.747 2.905Zm30.418 8.543a487.07 487.07 0 0 1 14.946 4.865l.977-2.836a490.252 490.252 0 0 0-15.039-4.896l-.884 2.867Zm29.641 10.244a302.222 302.222 0 0 1 14.629 6.136l1.236-2.734a305.607 305.607 0 0 0-14.775-6.197l-1.09 2.795Zm28.752 13.089c4.784 2.575 9.271 5.243 13.44 8.014l1.661-2.498c-4.256-2.828-8.824-5.544-13.68-8.157l-1.421 2.641Zm25.869 17.407c4.087 3.549 7.697 7.25 10.8 11.115l2.34-1.879c-3.229-4.021-6.967-7.849-11.173-11.501l-1.967 2.265Zm18.995 24.121a56.548 56.548 0 0 1 2.784 7.156l2.864-.894a59.562 59.562 0 0 0-2.932-7.535l-2.716 1.273Zm2.824 9.366a3 3 0 0 0 4.049-1.264l12.533-23.915a3 3 0 1 0-5.314-2.785l-11.141 21.257-21.257-11.14a3 3 0 1 0-2.785 5.314l23.915 12.533ZM3.36 10.297a3 3 0 0 0 5.535-2.318L3.36 10.296Zm12.434 11.402a3 3 0 1 0-5.166 3.053l5.165-3.053Zm3.963 16.45a3 3 0 1 0 4.74-3.678l-4.74 3.679Zm14.878 7.958a3 3 0 1 0-4.306 4.18l4.306-4.18Zm7.402 15.127a3 3 0 1 0 3.893-4.566l-3.893 4.566Zm16.15 5.042a3 3 0 0 0-3.517 4.862l3.516-4.862Zm9.872 13.852a3 3 0 1 0 3.18-5.089l-3.18 5.089Zm16.579 2.754a3 3 0 0 0-2.889 5.26l2.889-5.26Zm11.27 12.59a3 3 0 1 0 2.633-5.391l-2.634 5.39Zm16.998 1.256a3 3 0 1 0-2.41 5.494l2.41-5.494Zm12.146 11.574a3 3 0 0 0 2.218-5.575l-2.218 5.575Zm16.956.029a3 3 0 1 0-2.049 5.639l2.049-5.639Zm12.959 10.868a3 3 0 1 0 1.902-5.691l-1.902 5.691Zm16.862-.883a3 3 0 1 0-1.772 5.732l1.772-5.732Zm13.518 10.289a3 3 0 0 0 1.657-5.767l-1.657 5.767Zm16.767-1.568a3 3 0 0 0-1.558 5.794l1.558-5.794Zm13.876 9.814a3 3 0 0 0 1.468-5.818l-1.468 5.818Zm16.713-2.08a3 3 0 1 0-1.391 5.836l1.391-5.836Zm14.102 9.43a3 3 0 1 0 1.322-5.853l-1.322 5.853Zm16.694-2.465a3 3 0 1 0-1.262 5.866l1.262-5.866Zm14.272 9.134a3 3 0 1 0 1.21-5.876l-1.21 5.876Zm16.667-2.758a3 3 0 0 0-1.165 5.886l1.165-5.886Zm14.398 8.911a3 3 0 1 0 1.126-5.893l-1.126 5.893Zm16.641-2.973a3 3 0 1 0-1.094 5.899l1.094-5.899Zm14.486 8.751a3 3 0 0 0 1.068-5.904l-1.068 5.904Zm16.622-3.12a3 3 0 0 0-1.048 5.908l1.048-5.908Zm14.541 8.65a2.998 2.998 0 0 0 3.471-2.438 2.999 2.999 0 0 0-2.438-3.472l-1.033 5.91Zm16.609-3.202a3 3 0 1 0-1.023 5.912l1.023-5.912Zm14.567 8.605a2.999 2.999 0 1 0 1.02-5.912l-1.02 5.912Zm16.605-3.221a3 3 0 0 0-1.023 5.912l1.023-5.912Zm14.563 8.618a3 3 0 0 0 1.032-5.911l-1.032 5.911Zm16.606-3.175a3 3 0 1 0-1.046 5.908l1.046-5.908Zm14.533 8.694a3 3 0 1 0 1.068-5.904l-1.068 5.904Zm16.604-3.057a3 3 0 1 0-1.097 5.899l1.097-5.899Zm14.475 8.844a3 3 0 0 0 1.135-5.892l-1.135 5.892Zm16.591-2.855a2.999 2.999 0 1 0-1.181 5.882l1.181-5.882Zm14.381 9.083a3 3 0 0 0 1.238-5.871l-1.238 5.871Zm16.635-2.531a3 3 0 1 0-1.308 5.855l1.308-5.855Zm14.144 9.42a3 3 0 1 0 1.393-5.836l-1.393 5.836Zm16.791-2.025a3 3 0 1 0-1.494 5.811l1.494-5.811Zm13.641 9.868a3 3 0 1 0 1.616-5.778l-1.616 5.778Zm16.982-1.267a2.999 2.999 0 1 0-1.769 5.733l1.769-5.733Zm13.132 10.584a3 3 0 0 0 1.953-5.674l-1.953 5.674Zm16.818-.232a3 3 0 1 0-2.18 5.59l2.18-5.59Zm12.376 11.695a3 3 0 0 0 2.472-5.467l-2.472 5.467Zm16.873 1.624a3 3 0 1 0-2.843 5.283l2.843-5.283Zm10.478 13.226a3 3 0 0 0 3.321-4.998l-3.321 4.998Zm16.209 4.745a3 3 0 0 0-3.933 4.531l3.933-4.531Zm6.681 15.452a3 3 0 1 0 4.678-3.757l-4.678 3.757Zm13.438 10.157a3 3 0 1 0-5.432 2.547l5.432-2.547ZM.484 2.68c.871 2.58 1.83 5.12 2.876 7.617l5.535-2.318c-.991-2.367-1.9-4.772-2.726-7.217L.484 2.68Zm10.144 22.072a128.369 128.369 0 0 0 9.13 13.398l4.739-3.68a122.37 122.37 0 0 1-8.704-12.77l-5.165 3.053ZM30.33 50.286a170.028 170.028 0 0 0 11.708 10.948l3.893-4.566a164.054 164.054 0 0 1-11.295-10.56l-4.306 4.178Zm24.34 20.852a238.69 238.69 0 0 0 13.39 8.99l3.178-5.089a232.69 232.69 0 0 1-13.052-8.763l-3.516 4.862Zm27.08 17.003a333.322 333.322 0 0 0 14.157 7.33l2.634-5.39a327.37 327.37 0 0 1-13.903-7.199l-2.889 5.26Zm28.746 14.081a455.836 455.836 0 0 0 14.556 6.08l2.218-5.575a450.266 450.266 0 0 1-14.364-6l-2.41 5.495Zm29.463 11.748a606.133 606.133 0 0 0 15.008 5.229l1.902-5.691a600.884 600.884 0 0 1-14.861-5.177l-2.049 5.639Zm30.098 10.078a803.038 803.038 0 0 0 15.29 4.557l1.657-5.767a799.03 799.03 0 0 1-15.175-4.522l-1.772 5.732Zm30.499 8.783c5.096 1.37 10.243 2.709 15.434 4.02l1.468-5.818a1033.599 1033.599 0 0 1-15.344-3.996l-1.558 5.794Zm30.756 7.776c5.128 1.222 10.294 2.42 15.493 3.594l1.322-5.853a1341.832 1341.832 0 0 1-15.424-3.577l-1.391 5.836Zm30.925 6.995a1776.784 1776.784 0 0 0 15.534 3.268l1.21-5.876a1778.435 1778.435 0 0 1-15.482-3.258l-1.262 5.866Zm31.036 6.396a2382.12 2382.12 0 0 0 15.563 3.025l1.126-5.893a2411.3 2411.3 0 0 1-15.524-3.018l-1.165 5.886Zm31.11 5.951c5.187.962 10.382 1.912 15.58 2.852l1.068-5.904a3595.91 3595.91 0 0 1-15.554-2.847l-1.094 5.899Zm31.154 5.64c5.198.922 10.396 1.835 15.589 2.742l1.033-5.91a6282.016 6282.016 0 0 1-15.574-2.74l-1.048 5.908Zm31.175 5.452c5.207.902 10.406 1.799 15.59 2.693l1.02-5.912c-5.184-.895-10.381-1.792-15.587-2.693l-1.023 5.912Zm31.172 5.384c5.216.902 10.413 1.804 15.586 2.706l1.032-5.911c-5.178-.903-10.378-1.805-15.595-2.707l-1.023 5.912Zm31.146 5.439c5.224.925 10.419 1.853 15.579 2.786l1.068-5.904a4272.097 4272.097 0 0 0-15.601-2.79l-1.046 5.908Zm31.086 5.628c5.234.973 10.427 1.954 15.572 2.945l1.135-5.892c-5.16-.993-10.365-1.977-15.61-2.952l-1.097 5.899Zm30.982 5.972a1606.292 1606.292 0 0 1 15.562 3.201l1.238-5.871a1606.696 1606.696 0 0 0-15.619-3.212l-1.181 5.882Zm30.889 6.525a1093.285 1093.285 0 0 1 15.452 3.565l1.393-5.836a1096.824 1096.824 0 0 0-15.537-3.584l-1.308 5.855Zm30.749 7.351a741.799 741.799 0 0 1 15.135 4.057l1.616-5.778a744.723 744.723 0 0 0-15.257-4.09l-1.494 5.811Zm30.348 8.523a484.188 484.188 0 0 1 14.901 4.851l1.953-5.674a493.213 493.213 0 0 0-15.085-4.91l-1.769 5.733Zm29.539 10.209a299.534 299.534 0 0 1 14.556 6.105l2.472-5.467a305.295 305.295 0 0 0-14.848-6.228l-2.18 5.59Zm28.586 13.012c4.748 2.555 9.194 5.2 13.321 7.943l3.321-4.998c-4.299-2.856-8.907-5.596-13.799-8.228l-2.843 5.283Zm25.597 17.219c4.028 3.497 7.573 7.134 10.614 10.921l4.678-3.757c-3.291-4.099-7.093-7.991-11.359-11.695l-3.933 4.531Zm18.62 23.625a55.169 55.169 0 0 1 2.71 6.966l5.728-1.788a60.941 60.941 0 0 0-3.006-7.725l-5.432 2.547Z"/>
</svg>
