<svg xmlns="http://www.w3.org/2000/svg" width="733" height="315" fill="none" viewBox="0 0 733 315">
  <path fill="#E10000" d="M718.635 312.769a1.5 1.5 0 0 0 1.953-.829l5.054-12.518a1.5 1.5 0 1 0-2.782-1.123l-4.492 11.127-11.128-4.492a1.5 1.5 0 1 0-1.123 2.782l12.518 5.053ZM4.784 9.834A1.5 1.5 0 1 0 7.552 8.68L4.784 9.834Zm9.854 13.028a1.5 1.5 0 0 0-2.59 1.515l2.59-1.515Zm6.498 15.045a1.5 1.5 0 0 0 2.387-1.818l-2.387 1.818Zm12.694 10.29a1.5 1.5 0 1 0-2.182 2.06l2.182-2.06Zm9.442 13.285a1.5 1.5 0 0 0 1.988-2.247l-1.988 2.247Zm14.356 7.86a1.5 1.5 0 1 0-1.811 2.392l1.811-2.391Zm11.493 11.792a1.5 1.5 0 0 0 1.653-2.503l-1.653 2.503ZM84.3 87.04a1.5 1.5 0 0 0-1.516 2.588l1.517-2.588Zm12.591 10.416a1.5 1.5 0 0 0 1.397-2.654l-1.397 2.654Zm15.843 4.577a1.5 1.5 0 0 0-1.291 2.708l1.291-2.708Zm13.301 9.362a1.501 1.501 0 0 0 1.2-2.75l-1.2 2.75Zm16.024 3.459a1.5 1.5 0 0 0-1.119 2.784l1.119-2.784Zm13.96 8.625a1.5 1.5 0 0 0 1.049-2.811l-1.049 2.811Zm16.105 2.617a1.5 1.5 0 1 0-.987 2.833l.987-2.833Zm14.398 8.023a1.5 1.5 0 0 0 .932-2.852l-.932 2.852Zm16.15 1.979a1.5 1.5 0 1 0-.884 2.866l.884-2.866Zm14.615 7.517a1.501 1.501 0 0 0 .841-2.88l-.841 2.88Zm16.256 1.513a1.5 1.5 0 0 0-.804 2.89l.804-2.89Zm14.776 7.124a1.5 1.5 0 1 0 .771-2.899l-.771 2.899Zm16.316 1.148a1.499 1.499 0 1 0-.741 2.906l.741-2.906Zm14.899 6.822a1.5 1.5 0 0 0 .716-2.913l-.716 2.913Zm16.347.866a1.5 1.5 0 1 0-.694 2.918l.694-2.918Zm14.993 6.596a1.5 1.5 0 0 0 .675-2.923l-.675 2.923Zm16.361.657a1.5 1.5 0 0 0-.66 2.926l.66-2.926Zm15.062 6.435a1.5 1.5 0 0 0 .647-2.93l-.647 2.93Zm16.363.513a1.5 1.5 0 0 0-.637 2.932l.637-2.932Zm15.11 6.333a1.5 1.5 0 0 0 .63-2.934l-.63 2.934Zm16.359.43a1.5 1.5 0 0 0-.625 2.934l.625-2.934Zm15.139 6.288a1.5 1.5 0 0 0 .624-2.934l-.624 2.934Zm16.345.408a1.499 1.499 0 0 0-1.779 1.155 1.499 1.499 0 0 0 1.155 1.779l.624-2.934Zm15.151 6.301a1.5 1.5 0 0 0 .628-2.934l-.628 2.934Zm16.32.446a1.5 1.5 0 1 0-.635 2.932l.635-2.932Zm15.145 6.378a1.5 1.5 0 1 0 .645-2.93l-.645 2.93Zm16.279.551a1.5 1.5 0 1 0-.659 2.926l.659-2.926Zm15.12 6.527a1.5 1.5 0 1 0 .676-2.922l-.676 2.922Zm16.294.753a1.5 1.5 0 0 0-.698 2.918l.698-2.918Zm14.984 6.746a1.5 1.5 0 1 0 .725-2.911l-.725 2.911Zm16.329 1.067a1.5 1.5 0 1 0-.757 2.903l.757-2.903Zm14.741 7.057a1.5 1.5 0 1 0 .796-2.892l-.796 2.892Zm16.376 1.533a1.5 1.5 0 0 0-.844 2.879l.844-2.879Zm14.414 7.511a1.501 1.501 0 0 0 .9-2.862l-.9 2.862Zm16.325 2.189a1.502 1.502 0 0 0-.97 2.84l.97-2.84Zm14.177 8.253a1.5 1.5 0 1 0 1.053-2.809l-1.053 2.809Zm15.961 3.08a1.5 1.5 0 0 0-1.155 2.769l1.155-2.769Zm13.532 9.285a1.5 1.5 0 0 0 1.283-2.712l-1.283 2.712Zm15.779 4.667a1.5 1.5 0 1 0-1.445 2.629l1.445-2.629Zm12.256 10.854a1.5 1.5 0 0 0 1.651-2.505l-1.651 2.505Zm14.724 7.111a1.5 1.5 0 0 0-1.913 2.311l1.913-2.311Zm9.532 13.246a1.5 1.5 0 1 0 2.238-1.998l-2.238 1.998Zm11.876 11.193a1.5 1.5 0 1 0-2.597 1.501l2.597-1.501ZM1.906 2.2a116.426 116.426 0 0 0 2.878 7.634L7.552 8.68a113.42 113.42 0 0 1-2.804-7.44l-2.842.96Zm10.143 22.177a133.977 133.977 0 0 0 9.087 13.53l2.387-1.818a130.973 130.973 0 0 1-8.885-13.227l-2.59 1.515Zm19.6 25.88a179.99 179.99 0 0 0 11.623 11.225l1.988-2.247a176.96 176.96 0 0 1-11.43-11.038l-2.182 2.06Zm24.168 21.477a253.11 253.11 0 0 0 13.304 9.4l1.653-2.503a250.126 250.126 0 0 1-13.146-9.288l-1.811 2.391ZM82.785 89.63a352.712 352.712 0 0 0 14.107 7.828l1.397-2.655a349.748 349.748 0 0 1-13.987-7.762l-1.517 2.588Zm28.659 15.112a481.133 481.133 0 0 0 14.592 6.654l1.2-2.75a476.687 476.687 0 0 1-14.501-6.612l-1.291 2.708Zm29.497 12.897a646.772 646.772 0 0 0 15.079 5.841l1.049-2.811a637.364 637.364 0 0 1-15.009-5.814l-1.119 2.784Zm30.197 11.291a841.75 841.75 0 0 0 15.385 5.19l.932-2.852a838.224 838.224 0 0 1-15.33-5.171l-.987 2.833Zm30.651 10.035a1083.474 1083.474 0 0 0 15.499 4.651l.841-2.88c-5.2-1.519-10.354-3.064-15.456-4.637l-.884 2.866Zm30.951 9.054a1394.515 1394.515 0 0 0 15.58 4.234l.771-2.899a1420.66 1420.66 0 0 1-15.547-4.225l-.804 2.89Zm31.155 8.288a1831.534 1831.534 0 0 0 15.64 3.916l.716-2.913a1893.652 1893.652 0 0 1-15.615-3.909l-.741 2.906Zm31.293 7.7c5.212 1.24 10.443 2.466 15.687 3.678l.675-2.923a2569.91 2569.91 0 0 1-15.668-3.673l-.694 2.918Zm31.388 7.261a3673.686 3673.686 0 0 0 15.722 3.509l.647-2.93a3633.987 3633.987 0 0 1-15.709-3.505l-.66 2.926Zm31.448 6.954c5.25 1.141 10.501 2.274 15.747 3.401l.63-2.934a6255.281 6255.281 0 0 1-15.74-3.399l-.637 2.932Zm31.481 6.765c5.264 1.123 10.521 2.24 15.764 3.354l.624-2.934c-5.244-1.115-10.499-2.232-15.763-3.354l-.625 2.934Zm31.485 6.696a12108.26 12108.26 0 0 1 15.775 3.367l.628-2.934c-5.239-1.122-10.5-2.244-15.779-3.367l-.624 2.934Zm31.46 6.745a4606.89 4606.89 0 0 1 15.78 3.446l.645-2.93a4385.86 4385.86 0 0 0-15.79-3.448l-.635 2.932Zm31.4 6.923a2744.965 2744.965 0 0 1 15.779 3.601l.676-2.922a2687.277 2687.277 0 0 0-15.796-3.605l-.659 2.926Zm31.375 7.272a1725.11 1725.11 0 0 1 15.682 3.828l.725-2.911a1739.18 1739.18 0 0 0-15.709-3.835l-.698 2.918Zm31.254 7.798a1205.949 1205.949 0 0 1 15.498 4.154l.796-2.892a1179.942 1179.942 0 0 0-15.537-4.165l-.757 2.903Zm31.03 8.566a816.3 816.3 0 0 1 15.258 4.632l.9-2.862a821.629 821.629 0 0 0-15.314-4.649l-.844 2.879Zm30.613 9.661a542.39 542.39 0 0 1 15.147 5.413l1.053-2.809a550.89 550.89 0 0 0-15.23-5.444l-.97 2.84Zm29.953 11.262a344.786 344.786 0 0 1 14.687 6.516l1.283-2.712a347.146 347.146 0 0 0-14.815-6.573l-1.155 2.769Zm29.021 13.812c4.846 2.664 9.419 5.403 13.701 8.225l1.651-2.505c-4.356-2.871-8.999-5.651-13.907-8.349l-1.445 2.629Zm26.512 17.647c4.254 3.522 8.078 7.163 11.445 10.935l2.238-1.998c-3.479-3.897-7.414-7.642-11.77-11.248l-1.913 2.311Zm20.724 23.629a63.771 63.771 0 0 1 3.484 6.968l2.762-1.173a66.82 66.82 0 0 0-3.649-7.296l-2.597 1.501Zm3.742 9.163a3 3 0 0 0 3.905-1.658l10.107-25.037a3 3 0 1 0-5.563-2.246l-8.985 22.255-22.255-8.985a3 3 0 0 0-2.246 5.564l25.037 10.107ZM3.4 10.412a3 3 0 0 0 5.537-2.311L3.4 10.412Zm12.533 11.693a3 3 0 1 0-5.179 3.03l5.179-3.03Zm4.01 16.711a3 3 0 1 0 4.773-3.636l-4.773 3.636Zm14.977 8.352a3 3 0 1 0-4.362 4.119l4.362-4.12Zm7.358 15.437a3 3 0 1 0 3.976-4.493l-3.976 4.493Zm16.256 5.542a3 3 0 0 0-3.623 4.783l3.623-4.783Zm9.76 14.238a3 3 0 1 0 3.307-5.006l-3.307 5.006Zm16.766 3.361a3 3 0 1 0-3.033 5.177l3.033-5.177Zm11.134 13.038a3 3 0 0 0 2.793-5.31l-2.793 5.31Zm17.187 1.895a3 3 0 1 0-2.583 5.416l2.583-5.416Zm12.055 12.09a3 3 0 1 0 2.4-5.499l-2.4 5.499Zm17.184.694a3 3 0 1 0-2.239 5.566l2.239-5.566Zm12.876 11.421a3 3 0 0 0 2.098-5.621l-2.098 5.621Zm17.123-.205a3 3 0 1 0-1.974 5.666l1.974-5.666Zm13.438 10.866a2.999 2.999 0 0 0 3.783-1.92 2.998 2.998 0 0 0-1.919-3.783l-1.864 5.703Zm17.058-.881a3 3 0 0 0-1.768 5.734l1.768-5.734Zm13.752 10.391a3 3 0 0 0 1.683-5.759l-1.683 5.759Zm17.079-1.372a3 3 0 1 0-1.607 5.78l1.607-5.78Zm13.989 10.019a3 3 0 0 0 1.541-5.799l-1.541 5.799Zm17.072-1.756a3 3 0 0 0-1.483 5.814l1.483-5.814Zm14.17 9.733a3 3 0 1 0 1.432-5.827l-1.432 5.827Zm17.052-2.05a3 3 0 0 0-1.388 5.837l1.388-5.837Zm14.308 9.516a3 3 0 1 0 1.351-5.846l-1.351 5.846Zm17.029-2.267a3 3 0 1 0-1.32 5.853l1.32-5.853Zm14.408 9.362a3 3 0 1 0 1.294-5.859l-1.294 5.859Zm17.006-2.417a3 3 0 0 0-1.274 5.863l1.274-5.863Zm14.476 9.265a3 3 0 1 0 1.26-5.866l-1.26 5.866Zm16.987-2.503a3.001 3.001 0 0 0-1.251 5.869l1.251-5.869Zm14.514 9.222a2.999 2.999 0 1 0 1.247-5.869l-1.247 5.869Zm16.97-2.526a3 3 0 1 0-1.249 5.868l1.249-5.868Zm14.523 9.235a3 3 0 0 0 1.257-5.867l-1.257 5.867Zm16.953-2.487a3 3 0 1 0-1.271 5.864l1.271-5.864Zm14.504 9.309a3 3 0 0 0 1.291-5.86l-1.291 5.86Zm16.932-2.378a3 3 0 0 0-1.318 5.854l1.318-5.854Zm14.451 9.453a3 3 0 1 0 1.354-5.846l-1.354 5.846Zm16.983-2.168a3 3 0 1 0-1.397 5.835l1.397-5.835Zm14.271 9.66a3 3 0 1 0 1.451-5.821l-1.451 5.821Zm17.071-1.839a3 3 0 0 0-1.515 5.805l1.515-5.805Zm13.963 9.954a3 3 0 0 0 1.594-5.784l-1.594 5.784Zm17.197-1.352a3 3 0 0 0-1.688 5.758l1.688-5.758Zm13.541 10.38a3 3 0 1 0 1.801-5.723l-1.801 5.723Zm17.26-.66a3 3 0 1 0-1.938 5.678l1.938-5.678Zm13.166 11.077a3 3 0 0 0 2.106-5.618l-2.106 5.618Zm17.066.291a3 3 0 1 0-2.31 5.538l2.31-5.538Zm12.313 12.025a3 3 0 0 0 2.566-5.424l-2.566 5.424Zm17.142 1.996a3 3 0 1 0-2.89 5.259l2.89-5.259Zm10.709 13.421a3 3 0 1 0 3.301-5.01l-3.301 5.01Zm16.505 4.704a3 3 0 1 0-3.826 4.621l3.826-4.621Zm7.457 15.4a3 3 0 1 0 4.476-3.996l-4.476 3.996Zm14.294 9.444a3 3 0 1 0-5.195 3.001l5.195-3.001ZM.484 2.68A117.939 117.939 0 0 0 3.4 10.412l5.537-2.311A111.931 111.931 0 0 1 6.169.76L.484 2.68Zm10.27 22.455a135.483 135.483 0 0 0 9.19 13.681l4.772-3.636a129.507 129.507 0 0 1-8.783-13.075l-5.179 3.03Zm19.804 26.152a181.479 181.479 0 0 0 11.72 11.318l3.976-4.493A175.47 175.47 0 0 1 34.92 47.168l-4.362 4.119ZM54.91 72.93c4.278 3.24 8.743 6.39 13.383 9.455l3.307-5.006c-4.54-2.999-8.9-6.075-13.067-9.232L54.91 72.93Zm27.116 17.993a354.286 354.286 0 0 0 14.167 7.861l2.793-5.31a348.239 348.239 0 0 1-13.927-7.728l-3.033 5.177Zm28.771 15.172c4.775 2.276 9.657 4.5 14.638 6.674l2.4-5.499a477.442 477.442 0 0 1-14.455-6.591l-2.583 5.416Zm29.583 12.934a638.326 638.326 0 0 0 15.115 5.855l2.098-5.621a639.791 639.791 0 0 1-14.974-5.8l-2.239 5.566Zm30.264 11.316a837.099 837.099 0 0 0 15.412 5.2l1.864-5.703a840.21 840.21 0 0 1-15.302-5.163l-1.974 5.666Zm30.702 10.053c5.124 1.58 10.3 3.132 15.52 4.657l1.683-5.759a1088.773 1088.773 0 0 1-15.435-4.632l-1.768 5.734Zm30.992 9.065a1397.36 1397.36 0 0 0 15.596 4.239l1.541-5.799a1395.458 1395.458 0 0 1-15.53-4.22l-1.607 5.78Zm31.185 8.297c5.191 1.324 10.411 2.63 15.653 3.919l1.432-5.827a1851.118 1851.118 0 0 1-15.602-3.906l-1.483 5.814Zm31.317 7.706a2437.808 2437.808 0 0 0 15.696 3.679l1.351-5.846a2566.996 2566.996 0 0 1-15.659-3.67l-1.388 5.837Zm31.405 7.265c5.235 1.18 10.479 2.35 15.728 3.509l1.294-5.859a3630.747 3630.747 0 0 1-15.702-3.503l-1.32 5.853Zm31.46 6.955a6263.534 6263.534 0 0 0 15.75 3.402l1.26-5.866a6619.54 6619.54 0 0 1-15.736-3.399l-1.274 5.863Zm31.486 6.768c5.265 1.122 10.522 2.239 15.765 3.353l1.247-5.869a23626.92 23626.92 0 0 1-15.761-3.353l-1.251 5.869Zm31.486 6.695c5.277 1.123 10.536 2.245 15.772 3.367l1.257-5.867c-5.24-1.123-10.502-2.245-15.78-3.368l-1.249 5.868Zm31.454 6.744a4285.245 4285.245 0 0 1 15.775 3.445l1.291-5.86a4668.624 4668.624 0 0 0-15.795-3.449l-1.271 5.864Zm31.389 6.921a2641.938 2641.938 0 0 1 15.769 3.599l1.354-5.846a2813.028 2813.028 0 0 0-15.805-3.607l-1.318 5.854Zm31.355 7.266a1782.341 1782.341 0 0 1 15.668 3.825l1.451-5.821a1758.57 1758.57 0 0 0-15.722-3.839l-1.397 5.835Zm31.224 7.791a1194.112 1194.112 0 0 1 15.478 4.149l1.594-5.784a1171.682 1171.682 0 0 0-15.557-4.17l-1.515 5.805Zm30.987 8.555a816.217 816.217 0 0 1 15.229 4.622l1.801-5.723a819.407 819.407 0 0 0-15.342-4.657l-1.688 5.758Zm30.551 9.64a541.34 541.34 0 0 1 15.104 5.399l2.106-5.618a546.505 546.505 0 0 0-15.272-5.459l-1.938 5.678Zm29.86 11.228a343.188 343.188 0 0 1 14.623 6.487l2.566-5.424a349.167 349.167 0 0 0-14.879-6.601l-2.31 5.538Zm28.875 13.742c4.815 2.646 9.354 5.365 13.599 8.162l3.301-5.01c-4.393-2.895-9.07-5.696-14.01-8.411l-2.89 5.259Zm26.278 17.487c4.204 3.48 7.972 7.07 11.283 10.779l4.476-3.996c-3.535-3.96-7.526-7.756-11.933-11.404l-3.826 4.621Zm20.382 23.224a62.485 62.485 0 0 1 3.403 6.804l5.522-2.345a68.108 68.108 0 0 0-3.73-7.46l-5.195 3.001Z"/>
</svg>
