<svg xmlns="http://www.w3.org/2000/svg" width="684" height="296" viewBox="0 0 684 296" fill="none">
  <path d="M12.4717 293.128C12.7977 293.89 13.6794 294.243 14.441 293.917L26.8513 288.603C27.6129 288.277 27.9659 287.396 27.6399 286.634C27.3138 285.872 26.4321 285.519 25.6706 285.846L14.6391 290.569L9.91602 279.537C9.58996 278.776 8.70827 278.423 7.94671 278.749C7.18515 279.075 6.83211 279.956 7.15817 280.718L12.4717 293.128ZM18.614 286.071C19.021 285.35 18.766 284.435 18.0445 284.028C17.3229 283.621 16.408 283.876 16.001 284.597L18.614 286.071ZM25.6609 271.568C25.0931 272.171 25.1218 273.121 25.725 273.689C26.3282 274.256 27.2775 274.228 27.8454 273.624L25.6609 271.568ZM39.6221 263.374C40.2933 262.888 40.4436 261.95 39.9579 261.279C39.4722 260.608 38.5345 260.458 37.8633 260.943L39.6221 263.374ZM51.5836 252.46C50.8521 252.849 50.5743 253.757 50.9632 254.488C51.352 255.22 52.2602 255.498 52.9917 255.109L51.5836 252.46ZM67.3321 248.428C68.0987 248.114 68.4656 247.238 68.1516 246.471C67.8376 245.704 66.9615 245.337 66.1949 245.651L67.3321 248.428ZM81.3778 240.107C80.5901 240.364 80.1597 241.211 80.4165 241.998C80.6732 242.786 81.5198 243.216 82.3074 242.96L81.3778 240.107ZM97.5598 238.471C98.3604 238.258 98.8368 237.436 98.6239 236.636C98.411 235.835 97.5894 235.359 96.7888 235.572L97.5598 238.471ZM112.252 231.821C111.443 232 110.933 232.8 111.112 233.609C111.291 234.418 112.092 234.929 112.901 234.75L112.252 231.821ZM128.547 231.57C129.361 231.418 129.898 230.635 129.746 229.821C129.594 229.006 128.811 228.469 127.996 228.621L128.547 231.57ZM143.84 225.888C143.022 226.019 142.464 226.788 142.595 227.606C142.725 228.424 143.494 228.981 144.312 228.851L143.84 225.888ZM159.97 226.527C160.791 226.414 161.364 225.657 161.25 224.836C161.137 224.015 160.38 223.442 159.559 223.555L159.97 226.527ZM175.517 221.492C174.695 221.592 174.109 222.339 174.209 223.161C174.308 223.984 175.056 224.57 175.878 224.47L175.517 221.492ZM191.658 222.67C192.482 222.581 193.078 221.842 192.989 221.018C192.901 220.194 192.161 219.598 191.337 219.687L191.658 222.67ZM207.254 218.062C206.429 218.142 205.826 218.875 205.906 219.7C205.986 220.524 206.719 221.128 207.544 221.048L207.254 218.062ZM223.455 219.572C224.28 219.498 224.889 218.77 224.816 217.945C224.743 217.119 224.014 216.51 223.189 216.583L223.455 219.572ZM239.076 215.221C238.25 215.29 237.636 216.015 237.705 216.84C237.773 217.666 238.498 218.28 239.323 218.211L239.076 215.221ZM255.29 216.923C256.116 216.858 256.733 216.136 256.668 215.31C256.603 214.484 255.881 213.867 255.055 213.932L255.29 216.923ZM270.928 212.703C270.102 212.766 269.484 213.487 269.547 214.313C269.61 215.139 270.331 215.758 271.157 215.695L270.928 212.703ZM287.135 214.483C287.961 214.421 288.58 213.701 288.518 212.875C288.455 212.049 287.735 211.43 286.909 211.492L287.135 214.483ZM302.784 210.29C301.958 210.353 301.34 211.074 301.403 211.9C301.465 212.726 302.186 213.345 303.012 213.282L302.784 210.29ZM318.965 212.053C319.791 211.988 320.408 211.266 320.344 210.44C320.279 209.614 319.557 208.997 318.731 209.062L318.965 212.053ZM334.625 207.793C333.8 207.86 333.185 208.584 333.253 209.41C333.32 210.236 334.044 210.85 334.87 210.783L334.625 207.793ZM350.797 209.444C351.622 209.373 352.233 208.646 352.162 207.82C352.09 206.995 351.363 206.384 350.538 206.455L350.797 209.444ZM366.435 205.03C365.61 205.107 365.003 205.838 365.08 206.662C365.157 207.487 365.888 208.094 366.712 208.017L366.435 205.03ZM382.613 206.478C383.437 206.395 384.038 205.659 383.955 204.835C383.872 204.011 383.136 203.41 382.312 203.493L382.613 206.478ZM398.189 201.818C397.366 201.909 396.772 202.651 396.863 203.474C396.954 204.297 397.695 204.891 398.519 204.8L398.189 201.818ZM414.389 202.962C415.212 202.862 415.797 202.114 415.697 201.292C415.597 200.469 414.85 199.884 414.027 199.984L414.389 202.962ZM429.856 197.958C429.035 198.068 428.459 198.824 428.569 199.645C428.68 200.466 429.435 201.041 430.256 200.931L429.856 197.958ZM446.09 198.679C446.909 198.556 447.473 197.793 447.35 196.973C447.228 196.154 446.464 195.59 445.645 195.713L446.09 198.679ZM461.378 193.217C460.561 193.354 460.01 194.127 460.147 194.944C460.284 195.761 461.057 196.312 461.874 196.175L461.378 193.217ZM477.653 193.372C478.467 193.219 479.003 192.434 478.85 191.62C478.697 190.806 477.913 190.27 477.098 190.424L477.653 193.372ZM492.664 187.316C491.854 187.488 491.336 188.284 491.507 189.094C491.679 189.905 492.475 190.423 493.286 190.251L492.664 187.316ZM508.974 186.719C509.78 186.526 510.277 185.717 510.084 184.911C509.891 184.105 509.082 183.609 508.276 183.801L508.974 186.719ZM523.606 179.896C522.807 180.113 522.334 180.937 522.551 181.736C522.768 182.536 523.592 183.009 524.391 182.792L523.606 179.896ZM539.869 178.312C540.661 178.068 541.104 177.228 540.86 176.436C540.615 175.645 539.776 175.201 538.984 175.446L539.869 178.312ZM554.065 170.463C553.284 170.739 552.874 171.596 553.15 172.377C553.426 173.158 554.283 173.568 555.064 173.292L554.065 170.463ZM570.018 167.625C570.786 167.313 571.155 166.438 570.843 165.67C570.531 164.903 569.656 164.533 568.889 164.845L570.018 167.625ZM583.505 158.448C582.756 158.801 582.435 159.695 582.788 160.445C583.141 161.194 584.035 161.515 584.784 161.162L583.505 158.448ZM599.034 153.904C599.76 153.504 600.024 152.592 599.624 151.866C599.225 151.14 598.313 150.876 597.587 151.276L599.034 153.904ZM611.186 143.141C610.491 143.593 610.294 144.522 610.746 145.216C611.198 145.911 612.127 146.107 612.821 145.656L611.186 143.141ZM625.962 136.309C626.616 135.8 626.733 134.857 626.224 134.204C625.715 133.55 624.772 133.433 624.119 133.942L625.962 136.309ZM636.088 123.674C635.487 124.244 635.461 125.194 636.031 125.795C636.6 126.396 637.55 126.422 638.151 125.852L636.088 123.674ZM649.228 114.186C649.764 113.555 649.688 112.609 649.057 112.072C648.426 111.535 647.479 111.612 646.942 112.243L649.228 114.186ZM656.455 99.6519C655.995 100.341 656.181 101.272 656.871 101.732C657.56 102.192 658.491 102.006 658.951 101.316L656.455 99.6519ZM667.052 87.4278C667.426 86.6884 667.129 85.7861 666.39 85.4126C665.65 85.0391 664.748 85.3358 664.375 86.0752L667.052 87.4278ZM670.632 71.5798C670.349 72.3586 670.752 73.2189 671.53 73.5014C672.309 73.7839 673.169 73.3815 673.452 72.6027L670.632 71.5798ZM678.071 57.1527C678.264 56.347 677.767 55.5377 676.961 55.3452C676.155 55.1527 675.346 55.6499 675.154 56.4556L678.071 57.1527ZM677.991 41.0602C677.882 41.8815 678.46 42.6355 679.281 42.7444C680.102 42.8533 680.856 42.2758 680.965 41.4545L677.991 41.0602ZM682.332 25.2894C682.364 24.4616 681.719 23.7645 680.892 23.7323C680.064 23.7001 679.367 24.345 679.334 25.1728L682.332 25.2894ZM679.302 9.4693C679.336 10.297 680.035 10.9404 680.862 10.9063C681.69 10.8722 682.333 10.1736 682.299 9.34587L679.302 9.4693ZM15.2431 293.096C16.2139 290.671 17.3392 288.331 18.614 286.071L16.001 284.597C14.6618 286.971 13.4788 289.431 12.4581 291.98L15.2431 293.096ZM27.8454 273.624C31.2898 269.965 35.2255 266.555 39.6221 263.374L37.8633 260.943C33.3313 264.223 29.2495 267.756 25.6609 271.568L27.8454 273.624ZM52.9917 255.109C57.4657 252.731 62.2529 250.508 67.3321 248.428L66.1949 245.651C61.0349 247.765 56.1561 250.029 51.5836 252.46L52.9917 255.109ZM82.3074 242.96C87.1926 241.368 92.2816 239.874 97.5598 238.471L96.7888 235.572C91.4632 236.988 86.3208 238.496 81.3778 240.107L82.3074 242.96ZM112.901 234.75C117.978 233.626 123.197 232.569 128.547 231.57L127.996 228.621C122.617 229.625 117.365 230.689 112.252 231.821L112.901 234.75ZM144.312 228.851C149.434 228.034 154.656 227.261 159.97 226.527L159.559 223.555C154.227 224.292 148.984 225.068 143.84 225.888L144.312 228.851ZM175.878 224.47C181.067 223.842 186.329 223.244 191.658 222.67L191.337 219.687C185.996 220.262 180.721 220.862 175.517 221.492L175.878 224.47ZM207.544 221.048C212.795 220.538 218.101 220.048 223.455 219.572L223.189 216.583C217.828 217.06 212.514 217.551 207.254 218.062L207.544 221.048ZM239.323 218.211C244.608 217.773 249.932 217.345 255.29 216.923L255.055 213.932C249.694 214.354 244.365 214.783 239.076 215.221L239.323 218.211ZM271.157 215.695C276.458 215.29 281.786 214.887 287.135 214.483L286.909 211.492C281.56 211.896 276.232 212.298 270.928 212.703L271.157 215.695ZM303.012 213.282C308.317 212.878 313.636 212.469 318.965 212.053L318.731 209.062C313.405 209.478 308.088 209.887 302.784 210.29L303.012 213.282ZM334.87 210.783C340.177 210.349 345.488 209.904 350.797 209.444L350.538 206.455C345.234 206.915 339.928 207.359 334.625 207.793L334.87 210.783ZM366.712 208.017C372.021 207.523 377.323 207.012 382.613 206.478L382.312 203.493C377.031 204.026 371.736 204.537 366.435 205.03L366.712 208.017ZM398.519 204.8C403.828 204.214 409.12 203.603 414.389 202.962L414.027 199.984C408.77 200.623 403.489 201.234 398.189 201.818L398.519 204.8ZM430.256 200.931C435.566 200.215 440.845 199.466 446.09 198.679L445.645 195.713C440.416 196.497 435.151 197.244 429.856 197.958L430.256 200.931ZM461.874 196.175C467.179 195.286 472.441 194.352 477.653 193.372L477.098 190.424C471.907 191.4 466.665 192.33 461.378 193.217L461.874 196.175ZM493.286 190.251C498.578 189.131 503.81 187.955 508.974 186.719L508.276 183.801C503.139 185.031 497.932 186.201 492.664 187.316L493.286 190.251ZM524.391 182.792C529.634 181.371 534.796 179.879 539.869 178.312L538.984 175.446C533.946 177.002 528.817 178.484 523.606 179.896L524.391 182.792ZM555.064 173.292C560.157 171.493 565.145 169.605 570.018 167.625L568.889 164.845C564.061 166.808 559.117 168.678 554.065 170.463L555.064 173.292ZM584.784 161.162C589.675 158.856 594.429 156.439 599.034 153.904L597.587 151.276C593.04 153.779 588.343 156.168 583.505 158.448L584.784 161.162ZM612.821 145.656C617.387 142.686 621.772 139.573 625.962 136.309L624.119 133.942C619.999 137.151 615.684 140.215 611.186 143.141L612.821 145.656ZM638.151 125.852C642.072 122.139 645.769 118.253 649.228 114.186L646.942 112.243C643.556 116.224 639.934 120.032 636.088 123.674L638.151 125.852ZM658.951 101.316C661.91 96.8789 664.616 92.2523 667.052 87.4278L664.375 86.0752C661.993 90.7908 659.348 95.3133 656.455 99.6519L658.951 101.316ZM673.452 72.6027C675.252 67.6401 676.796 62.4926 678.071 57.1527L675.154 56.4556C673.904 61.687 672.392 66.7257 670.632 71.5798L673.452 72.6027ZM680.965 41.4545C681.657 36.2338 682.116 30.8473 682.332 25.2894L679.334 25.1728C679.122 30.6412 678.671 35.935 677.991 41.0602L680.965 41.4545ZM682.299 9.34587C682.187 6.6131 682.02 3.84219 681.798 1.03256L678.808 1.26853C679.027 4.04151 679.191 6.7749 679.302 9.4693L682.299 9.34587ZM11.0927 293.719C11.7449 295.242 13.5083 295.948 15.0314 295.296L39.8521 284.669C41.3752 284.017 42.0813 282.253 41.4291 280.73C40.777 279.207 39.0136 278.501 37.4905 279.153L15.4277 288.599L5.98145 266.536C5.32932 265.013 3.56593 264.307 2.04281 264.959C0.519692 265.612 -0.186389 267.375 0.465738 268.898L11.0927 293.719ZM19.9204 286.808C20.7345 285.365 20.2245 283.535 18.7815 282.721C17.3384 281.907 15.5086 282.417 14.6946 283.86L19.9204 286.808ZM24.5687 270.54C23.4331 271.746 23.4904 273.645 24.6969 274.781C25.9033 275.916 27.8019 275.859 28.9376 274.653L24.5687 270.54ZM40.5015 264.589C41.8438 263.617 42.1445 261.742 41.1731 260.4C40.2018 259.057 38.3262 258.757 36.984 259.728L40.5015 264.589ZM50.8796 251.135C49.4166 251.913 48.861 253.729 49.6387 255.192C50.4163 256.655 52.2328 257.211 53.6958 256.433L50.8796 251.135ZM67.9006 249.816C69.4338 249.188 70.1677 247.436 69.5396 245.902C68.9116 244.369 67.1596 243.635 65.6264 244.263L67.9006 249.816ZM80.913 238.681C79.3377 239.195 78.4769 240.888 78.9903 242.463C79.5037 244.039 81.197 244.899 82.7723 244.386L80.913 238.681ZM97.9452 239.92C99.5465 239.495 100.499 237.851 100.074 236.25C99.6478 234.649 98.0046 233.696 96.4033 234.122L97.9452 239.92ZM111.928 230.356C110.31 230.714 109.289 232.316 109.647 233.933C110.005 235.551 111.607 236.572 113.225 236.214L111.928 230.356ZM128.822 233.045C130.451 232.741 131.524 231.174 131.221 229.545C130.917 227.917 129.35 226.843 127.721 227.147L128.822 233.045ZM143.604 224.407C141.968 224.668 140.853 226.206 141.114 227.842C141.374 229.478 142.912 230.593 144.549 230.332L143.604 224.407ZM160.175 228.013C161.816 227.786 162.963 226.272 162.736 224.631C162.509 222.989 160.995 221.843 159.354 222.07L160.175 228.013ZM175.337 220.003C173.692 220.202 172.52 221.697 172.719 223.342C172.919 224.987 174.413 226.159 176.058 225.959L175.337 220.003ZM191.819 224.161C193.466 223.984 194.658 222.505 194.481 220.857C194.303 219.21 192.824 218.018 191.177 218.196L191.819 224.161ZM207.109 216.569C205.46 216.729 204.253 218.195 204.413 219.845C204.573 221.494 206.039 222.701 207.688 222.541L207.109 216.569ZM223.588 221.066C225.238 220.919 226.457 219.462 226.31 217.812C226.164 216.161 224.707 214.943 223.056 215.089L223.588 221.066ZM238.952 213.726C237.3 213.863 236.073 215.313 236.21 216.964C236.347 218.615 237.796 219.843 239.447 219.706L238.952 213.726ZM255.408 218.418C257.06 218.288 258.293 216.844 258.163 215.192C258.033 213.54 256.589 212.307 254.937 212.437L255.408 218.418ZM270.814 211.208C269.162 211.334 267.925 212.775 268.051 214.427C268.177 216.079 269.619 217.316 271.271 217.19L270.814 211.208ZM287.248 215.979C288.9 215.855 290.138 214.414 290.013 212.762C289.889 211.11 288.448 209.872 286.796 209.996L287.248 215.979ZM302.671 208.795C301.018 208.92 299.781 210.362 299.907 212.014C300.033 213.666 301.474 214.903 303.126 214.777L302.671 208.795ZM319.082 213.548C320.734 213.419 321.968 211.975 321.839 210.323C321.71 208.671 320.266 207.437 318.614 207.566L319.082 213.548ZM334.503 206.298C332.852 206.433 331.623 207.881 331.758 209.532C331.892 211.183 333.341 212.413 334.992 212.278L334.503 206.298ZM350.926 210.939C352.577 210.796 353.799 209.342 353.656 207.691C353.513 206.04 352.059 204.818 350.408 204.961L350.926 210.939ZM366.296 203.536C364.646 203.69 363.433 205.152 363.586 206.801C363.74 208.451 365.202 209.664 366.851 209.511L366.296 203.536ZM382.763 207.97C384.412 207.804 385.614 206.333 385.447 204.685C385.281 203.036 383.81 201.834 382.161 202.001L382.763 207.97ZM398.025 200.327C396.378 200.509 395.19 201.992 395.372 203.638C395.554 205.285 397.036 206.473 398.683 206.291L398.025 200.327ZM414.57 204.451C416.215 204.251 417.386 202.756 417.186 201.111C416.986 199.466 415.491 198.295 413.846 198.495L414.57 204.451ZM429.655 196.471C428.013 196.692 426.862 198.203 427.083 199.845C427.304 201.487 428.815 202.639 430.457 202.417L429.655 196.471ZM446.312 200.163C447.951 199.917 449.08 198.389 448.834 196.751C448.588 195.112 447.06 193.983 445.422 194.229L446.312 200.163ZM461.13 191.737C459.496 192.011 458.393 193.558 458.667 195.192C458.941 196.826 460.488 197.929 462.122 197.655L461.13 191.737ZM477.93 194.846C479.559 194.54 480.63 192.971 480.324 191.343C480.018 189.715 478.449 188.643 476.821 188.949L477.93 194.846ZM492.354 185.849C490.733 186.192 489.697 187.784 490.04 189.405C490.383 191.026 491.975 192.062 493.596 191.719L492.354 185.849ZM509.324 188.178C510.935 187.792 511.929 186.173 511.543 184.562C511.157 182.951 509.539 181.957 507.927 182.343L509.324 188.178ZM523.214 178.449C521.615 178.882 520.67 180.53 521.103 182.129C521.537 183.728 523.184 184.673 524.784 184.24L523.214 178.449ZM540.312 179.745C541.895 179.256 542.782 177.577 542.293 175.994C541.804 174.411 540.124 173.524 538.541 174.013L540.312 179.745ZM553.565 169.049C552.003 169.601 551.184 171.315 551.736 172.877C552.288 174.439 554.002 175.258 555.564 174.706L553.565 169.049ZM570.583 169.014C572.118 168.39 572.857 166.64 572.233 165.105C571.609 163.57 569.859 162.832 568.324 163.456L570.583 169.014ZM582.866 157.091C581.367 157.798 580.725 159.585 581.431 161.084C582.137 162.583 583.925 163.225 585.424 162.519L582.866 157.091ZM599.758 155.218C601.209 154.418 601.738 152.594 600.938 151.143C600.139 149.691 598.315 149.162 596.863 149.962L599.758 155.218ZM610.368 141.883C608.979 142.787 608.585 144.645 609.489 146.034C610.392 147.423 612.25 147.816 613.639 146.913L610.368 141.883ZM626.884 137.492C628.191 136.474 628.425 134.589 627.407 133.282C626.389 131.975 624.504 131.741 623.197 132.759L626.884 137.492ZM635.056 122.585C633.854 123.725 633.802 125.624 634.941 126.826C636.081 128.029 637.98 128.081 639.183 126.941L635.056 122.585ZM650.37 115.158C651.444 113.896 651.291 112.003 650.028 110.929C648.766 109.856 646.873 110.009 645.8 111.271L650.37 115.158ZM655.207 98.8196C654.288 100.198 654.66 102.061 656.038 102.98C657.417 103.899 659.28 103.527 660.199 102.149L655.207 98.8196ZM668.391 88.1041C669.138 86.6252 668.545 84.8207 667.066 84.0737C665.587 83.3267 663.783 83.9201 663.036 85.399L668.391 88.1041ZM669.222 71.0684C668.657 72.626 669.461 74.3466 671.019 74.9115C672.576 75.4764 674.297 74.6717 674.862 73.1142L669.222 71.0684ZM679.53 57.5013C679.915 55.8898 678.921 54.2713 677.31 53.8863C675.698 53.5013 674.08 54.4955 673.695 56.107L679.53 57.5013ZM676.504 40.8631C676.286 42.5055 677.441 44.0136 679.084 44.2313C680.726 44.4491 682.234 43.2942 682.452 41.6517L676.504 40.8631ZM683.831 25.3477C683.895 23.6921 682.605 22.2978 680.95 22.2334C679.294 22.169 677.9 23.4589 677.836 25.1145L683.831 25.3477ZM677.803 9.53102C677.871 11.1865 679.269 12.4732 680.924 12.405C682.58 12.3369 683.866 10.9396 683.798 9.28415L677.803 9.53102ZM16.6356 293.653C17.5814 291.291 18.6779 289.011 19.9204 286.808L14.6946 283.86C13.3231 286.291 12.1113 288.811 11.0656 291.423L16.6356 293.653ZM28.9376 274.653C32.31 271.07 36.1726 267.721 40.5015 264.589L36.984 259.728C32.3842 263.057 28.2293 266.651 24.5687 270.54L28.9376 274.653ZM53.6958 256.433C58.1205 254.081 62.8619 251.88 67.9006 249.816L65.6264 244.263C60.4258 246.394 55.5013 248.679 50.8796 251.135L53.6958 256.433ZM82.7723 244.386C87.6285 242.803 92.6909 241.318 97.9452 239.92L96.4033 234.122C91.0539 235.544 85.885 237.061 80.913 238.681L82.7723 244.386ZM113.225 236.214C118.284 235.095 123.487 234.04 128.822 233.045L127.721 227.147C122.327 228.153 117.059 229.221 111.928 230.356L113.225 236.214ZM144.549 230.332C149.659 229.517 154.871 228.746 160.175 228.013L159.354 222.07C154.012 222.808 148.759 223.585 143.604 224.407L144.549 230.332ZM176.058 225.959C181.24 225.332 186.496 224.734 191.819 224.161L191.177 218.196C185.83 218.771 180.547 219.372 175.337 220.003L176.058 225.959ZM207.688 222.541C212.935 222.032 218.237 221.541 223.588 221.066L223.056 215.089C217.692 215.566 212.374 216.058 207.109 216.569L207.688 222.541ZM239.447 219.706C244.73 219.268 250.052 218.84 255.408 218.418L254.937 212.437C249.574 212.859 244.244 213.288 238.952 213.726L239.447 219.706ZM271.271 217.19C276.572 216.785 281.899 216.383 287.248 215.979L286.796 209.996C281.448 210.4 276.118 210.803 270.814 211.208L271.271 217.19ZM303.126 214.777C308.431 214.373 313.752 213.965 319.082 213.548L318.614 207.566C313.29 207.983 307.973 208.391 302.671 208.795L303.126 214.777ZM334.992 212.278C340.301 211.844 345.614 211.399 350.926 210.939L350.408 204.961C345.108 205.42 339.804 205.865 334.503 206.298L334.992 212.278ZM366.851 209.511C372.164 209.017 377.469 208.504 382.763 207.97L382.161 202.001C376.884 202.533 371.594 203.044 366.296 203.536L366.851 209.511ZM398.683 206.291C403.998 205.705 409.296 205.092 414.57 204.451L413.846 198.495C408.595 199.133 403.319 199.743 398.025 200.327L398.683 206.291ZM430.457 202.417C435.773 201.701 441.06 200.951 446.312 200.163L445.422 194.229C440.201 195.012 434.944 195.758 429.655 196.471L430.457 202.417ZM462.122 197.655C467.437 196.763 472.708 195.829 477.93 194.846L476.821 188.949C471.64 189.924 466.408 190.852 461.13 191.737L462.122 197.655ZM493.596 191.719C498.9 190.596 504.145 189.417 509.324 188.178L507.927 182.343C502.803 183.569 497.61 184.736 492.354 185.849L493.596 191.719ZM524.784 184.24C530.042 182.814 535.221 181.318 540.312 179.745L538.541 174.013C533.521 175.563 528.409 177.04 523.214 178.449L524.784 184.24ZM555.564 174.706C560.677 172.9 565.687 171.004 570.583 169.014L568.324 163.456C563.519 165.409 558.596 167.271 553.565 169.049L555.564 174.706ZM585.424 162.519C590.341 160.201 595.123 157.769 599.758 155.218L596.863 149.962C592.346 152.449 587.677 154.824 582.866 157.091L585.424 162.519ZM613.639 146.913C618.238 143.922 622.658 140.784 626.884 137.492L623.197 132.759C619.113 135.94 614.832 138.979 610.368 141.883L613.639 146.913ZM639.183 126.941C643.141 123.192 646.875 119.268 650.37 115.158L645.8 111.271C642.45 115.21 638.865 118.978 635.056 122.585L639.183 126.941ZM660.199 102.149C663.191 97.6617 665.927 92.9831 668.391 88.1041L663.036 85.399C660.681 90.0601 658.067 94.5305 655.207 98.8196L660.199 102.149ZM674.862 73.1142C676.682 68.0973 678.242 62.8954 679.53 57.5013L673.695 56.107C672.458 61.2842 670.962 66.2685 669.222 71.0684L674.862 73.1142ZM682.452 41.6517C683.151 36.3833 683.613 30.9504 683.831 25.3477L677.836 25.1145C677.625 30.5382 677.177 35.7855 676.504 40.8631L682.452 41.6517ZM683.798 9.28415C683.685 6.5322 683.517 3.74252 683.294 0.914575L677.312 1.38652C677.53 4.14118 677.693 6.8558 677.803 9.53102L683.798 9.28415Z" fill="#D51D1D"/>
</svg>